<mxfile host="app.diagrams.net" agent="Mozilla/5.0 (Windows NT 10.0; Win64; x64) AppleWebKit/537.36 (KHTML, like Gecko) Chrome/141.0.0.0 Safari/537.36" version="28.2.7">
  <diagram name="PÃ¡gina-1" id="c_HiYzQzvHS6uz9730q2">
    <mxGraphModel grid="1" page="1" gridSize="10" guides="1" tooltips="1" connect="1" arrows="1" fold="1" pageScale="1" pageWidth="1169" pageHeight="827" math="0" shadow="0">
      <root>
        <mxCell id="0" />
        <mxCell id="1" parent="0" />
        <mxCell id="68ylDHR1GUJ3_icKr76c-3" value="" style="rounded=0;whiteSpace=wrap;html=1;" vertex="1" parent="1">
          <mxGeometry x="30" y="279" width="120" height="366" as="geometry" />
        </mxCell>
        <mxCell id="68ylDHR1GUJ3_icKr76c-5" value="Actors" style="swimlane;whiteSpace=wrap;html=1;" vertex="1" parent="1">
          <mxGeometry x="30" y="279" width="120" height="110" as="geometry">
            <mxRectangle x="310" y="480" width="70" height="30" as="alternateBounds" />
          </mxGeometry>
        </mxCell>
        <mxCell id="68ylDHR1GUJ3_icKr76c-6" value="" style="shape=actor;whiteSpace=wrap;html=1;" vertex="1" parent="68ylDHR1GUJ3_icKr76c-5">
          <mxGeometry x="40" y="35" width="40" height="45" as="geometry" />
        </mxCell>
        <mxCell id="68ylDHR1GUJ3_icKr76c-7" value="User" style="text;html=1;whiteSpace=wrap;strokeColor=none;fillColor=none;align=center;verticalAlign=middle;rounded=0;" vertex="1" parent="68ylDHR1GUJ3_icKr76c-5">
          <mxGeometry x="30" y="80" width="60" height="30" as="geometry" />
        </mxCell>
        <mxCell id="68ylDHR1GUJ3_icKr76c-42" style="edgeStyle=orthogonalEdgeStyle;rounded=0;orthogonalLoop=1;jettySize=auto;html=1;" edge="1" parent="1" source="68ylDHR1GUJ3_icKr76c-9" target="68ylDHR1GUJ3_icKr76c-41">
          <mxGeometry relative="1" as="geometry" />
        </mxCell>
        <mxCell id="68ylDHR1GUJ3_icKr76c-9" value="Channels" style="swimlane;whiteSpace=wrap;html=1;" vertex="1" parent="1">
          <mxGeometry x="30" y="389" width="120" height="256" as="geometry" />
        </mxCell>
        <mxCell id="68ylDHR1GUJ3_icKr76c-11" value="Mobile" style="text;html=1;whiteSpace=wrap;strokeColor=none;fillColor=none;align=center;verticalAlign=middle;rounded=0;" vertex="1" parent="68ylDHR1GUJ3_icKr76c-9">
          <mxGeometry x="25.389999999999986" y="110" width="60" height="30" as="geometry" />
        </mxCell>
        <mxCell id="68ylDHR1GUJ3_icKr76c-13" value="" style="verticalLabelPosition=bottom;aspect=fixed;html=1;shape=mxgraph.salesforce.web;fillColorStyles=fillColor2,fillColor3,fillColor4;fillColor2=#032d60;fillColor3=#0d9dda;fillColor4=#ffffff;fillColor=none;strokeColor=none;" vertex="1" parent="68ylDHR1GUJ3_icKr76c-9">
          <mxGeometry x="30" y="150" width="60" height="47.400000000000006" as="geometry" />
        </mxCell>
        <mxCell id="68ylDHR1GUJ3_icKr76c-14" value="Web" style="text;html=1;whiteSpace=wrap;strokeColor=none;fillColor=none;align=center;verticalAlign=middle;rounded=0;" vertex="1" parent="68ylDHR1GUJ3_icKr76c-9">
          <mxGeometry x="25.389999999999986" y="210" width="60" height="30" as="geometry" />
        </mxCell>
        <mxCell id="68ylDHR1GUJ3_icKr76c-10" value="" style="verticalLabelPosition=bottom;verticalAlign=top;html=1;shadow=0;dashed=0;strokeWidth=1;shape=mxgraph.android.phone2;strokeColor=#c0c0c0;" vertex="1" parent="1">
          <mxGeometry x="70" y="419" width="30.77" height="60" as="geometry" />
        </mxCell>
        <mxCell id="68ylDHR1GUJ3_icKr76c-15" value="AWS Cloud" style="points=[[0,0],[0.25,0],[0.5,0],[0.75,0],[1,0],[1,0.25],[1,0.5],[1,0.75],[1,1],[0.75,1],[0.5,1],[0.25,1],[0,1],[0,0.75],[0,0.5],[0,0.25]];outlineConnect=0;gradientColor=none;html=1;whiteSpace=wrap;fontSize=12;fontStyle=0;container=1;pointerEvents=0;collapsible=0;recursiveResize=0;shape=mxgraph.aws4.group;grIcon=mxgraph.aws4.group_aws_cloud_alt;strokeColor=#232F3E;fillColor=none;verticalAlign=top;align=left;spacingLeft=30;fontColor=#232F3E;dashed=0;" vertex="1" parent="1">
          <mxGeometry x="170" y="234" width="670" height="456" as="geometry" />
        </mxCell>
        <mxCell id="68ylDHR1GUJ3_icKr76c-51" value="" style="edgeStyle=orthogonalEdgeStyle;rounded=0;orthogonalLoop=1;jettySize=auto;html=1;" edge="1" parent="68ylDHR1GUJ3_icKr76c-15" source="68ylDHR1GUJ3_icKr76c-31" target="68ylDHR1GUJ3_icKr76c-50">
          <mxGeometry relative="1" as="geometry" />
        </mxCell>
        <mxCell id="68ylDHR1GUJ3_icKr76c-67" style="edgeStyle=orthogonalEdgeStyle;rounded=0;orthogonalLoop=1;jettySize=auto;html=1;exitX=0.5;exitY=0;exitDx=0;exitDy=0;entryX=0.5;entryY=1;entryDx=0;entryDy=0;" edge="1" parent="68ylDHR1GUJ3_icKr76c-15" source="68ylDHR1GUJ3_icKr76c-31" target="68ylDHR1GUJ3_icKr76c-62">
          <mxGeometry relative="1" as="geometry" />
        </mxCell>
        <mxCell id="68ylDHR1GUJ3_icKr76c-31" value="Databricks" style="points=[[0,0],[0.25,0],[0.5,0],[0.75,0],[1,0],[1,0.25],[1,0.5],[1,0.75],[1,1],[0.75,1],[0.5,1],[0.25,1],[0,1],[0,0.75],[0,0.5],[0,0.25]];outlineConnect=0;gradientColor=none;html=1;whiteSpace=wrap;fontSize=12;fontStyle=0;container=1;pointerEvents=0;collapsible=0;recursiveResize=0;shape=mxgraph.aws4.group;grIcon=mxgraph.aws4.group_elastic_beanstalk;strokeColor=#D86613;fillColor=none;verticalAlign=top;align=left;spacingLeft=30;fontColor=#D86613;dashed=0;" vertex="1" parent="68ylDHR1GUJ3_icKr76c-15">
          <mxGeometry x="380" y="166" width="230" height="124" as="geometry" />
        </mxCell>
        <mxCell id="68ylDHR1GUJ3_icKr76c-32" value="" style="image;sketch=0;aspect=fixed;html=1;points=[];align=center;fontSize=12;image=img/lib/mscae/Databricks.svg;" vertex="1" parent="68ylDHR1GUJ3_icKr76c-31">
          <mxGeometry x="2" y="2" width="20.83" height="20" as="geometry" />
        </mxCell>
        <mxCell id="68ylDHR1GUJ3_icKr76c-33" value="" style="image;aspect=fixed;html=1;points=[];align=center;fontSize=12;image=img/lib/azure2/analytics/Azure_Databricks.svg;" vertex="1" parent="68ylDHR1GUJ3_icKr76c-31">
          <mxGeometry x="84.19" y="60.370000000000005" width="31.63" height="34.25" as="geometry" />
        </mxCell>
        <mxCell id="68ylDHR1GUJ3_icKr76c-37" value="" style="shape=image;verticalLabelPosition=bottom;labelBackgroundColor=default;verticalAlign=top;aspect=fixed;imageAspect=0;image=data:image/png,iVBORw0KGgoAAAANSUhEUgAAANAAAACjCAYAAAD7EpAbAAAAAXNSR0IArs4c6QAAAARnQU1BAACxjwv8YQUAAAAJcEhZcwAAFiUAABYlAUlSJPAAADL9SURBVHhe7b15nFzXdd/5ve/VXtXVG3rB0iDATeImSuIiUVJkK7ZGmxV/JNmSxs7Yns9nPvPJjLPYcZzE40/i8dhR4hknzqKxnZHjKPISyZYVkFookopESiJp7hREggBBAt1oNNBr7Xu99+78ce6rqm6AQANdr7qrUT98ulFd9erd9+47v3POPffcc5XWWjPAAANcFayNbwwwwACbx4BAOwja/9HyM8DOhxq4cDsDGlAb37zE+wPsDAwItAOggaanOVVqcKZUp+FqQpbi8FCUw6kIYUsNSLRDMSBQz6HRKBQajQYsqq7HkfkC3zid5Xypget62LbFgXSET1w/zkcODGEpJUxDg/Kt0oBW243BGKiHkDGObom9xsLTmseWy/zJyyucyVVpOh5aKxzXYzZb4w9fXuT5TPXCEwEab/37A/QcAwL1EMqXfEBrsShzFYevnMpSbjZRWKANMbQCrShVXP7w1TUWq80Wc5QJNCg9sEDbjQGBegrVct5Q4sI9tlhgNlvdQAaFxhNrpeD0UplvnS/R1OK++T9aDQi03RgQqIfwhzA+kebKDb4xl6fRlNGQEEs+9cc3GnC0xyPzeV4vNQ255PsD+mw/BgTqJbTvhGkanuaPX8+wnK+bYELnYRvjOooz+SqPLOTxtE+1wQhoJ2BAoB5CPC6FpzXfWSrx5Hxx0xOmngPfPlvgWL7u+28DC7QDMCBQj6GBxarL1+byNJuuIdUmoCBbavK51zLkGi4ovS4oMcD2YECgHsLT4np9f6XE8ZUSSlkXcdcuAaV48UyOB88X8Vru4ADbiQGBegRtXLjTpQYPzhWoOx5ae61gwaZgAhDfms8zW25u/HSAbcCAQIFCBvy+rfA03D9f4HS2tvHATUKjLDiTrfPIQpGG15l0qs3rgV3qJQYEChQSjhaR1jybqfLQbBbteigslLoSYZfwtdbQdBy+vZDjbKXZSgnyXcErOeMAW8eAQAGhZXfMWGW15vInr2Wo1VzDKy3ZCJuGOZG2QFksFRr8x5Nr1Dw/mK1AeVfiEA7QBQwIFBAUsqjHU5qmB/99qcTJ5SrKhN2uJodXKUB5wiUPnlso8OhyFc+wdRDY7j0GBAoMkjKttGKp1uS/z+epuY6Z/pRcgiuFP8bxMxaaTZcvv77GQrUpKapXzskBtogBgYKEFnF/aKHEa5mqIUDnuOgKofS6qJ1SFqfX6jx8voijPQYOXO8xIFBg0CileKVQ58G5PK5zVZS5DDwcz+O78yVeLzYNfQYk6iUGBAoIWisKTZf/9FqGtWJt8xkHVwAJQijm8zW+djaPp71NpwYN0B0MCBQUFDy5WuGlcyUR9CAYBGg8PE/z0FyOZ7I1BkOh3mJAoACggbOVJg/M5qg7HkpdXdTtcmgHIjSNusvnT2Y4Xx1kKPQSAwJ1BT45dGu5wXeXSry6VjHvmjhzl9E5eapQvLZU5jtLJZpeZ1ZCe5J1gO5jQKCuQBlBVSilmCs3+W9zWRpNyXXzF8hdTej6UuhcVqe1pqk135krcLYiVqi9Xqi77Q7QxoBAXYDGzNFoTcP1+C+nsqxkG0b/u2jcFsW6CzmfQpnMBo/X8zW+uVAQq2QyHQb0CQ4DAnUBxgbgofneSpnvncmhtT9ZagFW16lDp4OmtWlH4bmaR+bzHCt0BhSCaH0ABgTqIpTFYs3lyGyORt0zrBIR73S1uonWOVXLBKLRZIoN/t/ja5SakvUwsEHBYUCgq4CIasffWhbLPbFS4tXVSjvfrXV8MAP5dedUrV9oDcfOl/j2UhFPi/M4QDAYEOgq0KnP/ej0QqXJg7MF6k3PpNxsIxRoz+Nrszlmy83B5GqAGBDoSmGEUTii0UrjoDlytsCpbFWsU2v8sz1QKJQFpzM1Hj1fxBks/w4MAwJdKVoekbhlSsOL2TpHTmXwPNeI7xXWOugytEnpabqab87nOVdtbCOddzcGBLoamKqgWitWGy7/9fQaTs013bl9xGlBtcc9y4Um/+VUnqo7qCIXBAYEumpoPA1PrJQ5vlTe8MkOIJG/2Ft7fO9MjkeXy62qQOyYa+x/DAh0FRDBhOW6w/2n85Tq7sZDdgyUgnrN4b+dzrJYc/xo9yC03SUMCHQV0GZQ/vC5ohSG33jADoLWoGzF6dUK3z5fwjHLzHeEq7kLMCDQFUKbidFjuTpfPZ3Dcd0dL4paQ931TD05RyKIO/2i+wQDAl0xFBXX5c9ns6wU6ijVL12omM1WOXImZzy4nWw3+wf98vS3EW1VrdG4WvPocpnnzxVRSgWyzicYyLjtkfkiz2WroDvDCP6rfrmXnYMBgS4DqXbTnolcqTV56EyeWmPnu26dUCbZtFFt8IWTayzVXEN+IZL8HlilK8WAQJeERuGBUnhK9jZ9dLHM8bXqurmWfoAEsIUkx5erPLpcxtVGQQSU7HotYECgS8KU0zVitlx3uH8uT73hos28ZN+IndkdEqDheDwyl2Oh0hQrNEj1uWoMCHRJCHFAUXU0f3gyy/lcVWjTShjtEwopqUXnj9lm8zUeWii07uUqK9Vd8xgQ6DKQpQrw5FqZ75/JG23dOfzuF8Ez16nkmpuOx0PzBV4t1js/HeAKMSDQJSHledfqDg+czlGrObtK0FaLdX7v1RVKjiSf9k1AcQdhQKBLQGsJ/T65WubVtRpK7bLBtoZXz5X4zlJZCtRv9zqmPsSAQG8AjRigxZrDkdM5Kg23I5K1S6DAdTQPzuU5W20O/LirwIBAl4TigfkCpzNXu6Pc1cFfEh48NMpSnFwr892lkuwbMSDRFWFAoHVoh3S11jyzVuErpzJ4bpBSJfMwANGQzY8eGuGX7trPfYdGiIbtjqMCIJWWTIqmA988U2Cu3GwFGQbmaHMYEKgTWn5pDWsNly/P5qhVHKm55jOr6/AZC/cdSPP3b53kJw8M8Su3THDf/jSWmbANxnU0YzqlWchX+cKpLDWZXTUYEOlyGBDIQKNbcyUeHk+uVnlpqV1hBy1VR4OAUpBKRfjE4WHGIzZKafbEbD4yk2YsHt54ePegtPxohfbg+/M5nlitdMwZ+QcOSPRGGBCoA1qLN5Wte3xzLkep3jA7ykmRjqCgbPj0TWPcMRw1k5pC2DtGo7zzYAqC3L6xVb1U0ag7/OUpU6Bey1hMqBNQ27sAAYpFf0FcGZk0ffB8gRNrJuNAKzNL7wXiRikFt04k+PC+IbFwpgmlIGZZfGpmlMnRuCFyl6H9AiTGRVQWp9YqPLYkC++kutAAl8KAQBtwrFDnyKksTccs0zYyfWU7ar8xNlqSdDTMR68bZTQSks+Nm6jMDnczyQg/e9MYkYi94ZtdmJNS4rZ2nqbe9Hh4vsCZSnOwZmgTGBDIwNNQdjz+bDbLar6+deF8A/hLCBSyTOLWyQT37YmjkGLwbZdJmbGHx4f3prlragjxMH2CmXHblnDhPWrgdKbKV88W5e+tNrHLMSBQS0w1T62WObpQklWmQc3KG5nVGlKJCB87NMJwxPa9xZZIa7NlsEIRtuEnDqYZS4ZByXtbJ88bQ3se35jL8mymarLRB3gjDAhkZHq17vLVuTzlhgNBal5txlW25gOHRnnbaAy0LHfrbLRlaZRYpjtH47x739CGY4KCRb3i8IWTa2Tq0h8DXBzXPIF8cXxipcRLq+X2gDoAKKVRloxtDo8n+JnrhokIQ+RKzJhj3RVoUGhSYYsPzqRJpsKtwX0w1ymta+DEcpnHlk2e3AAXxTVJIF/wfGW+WHP40msZGg0JWQcFaU8Ti1h89OAoE/HQumCA37K8Y8ZBZpCvUNyajvHJG8YJhfz9hgK4Vt0e/dUdzcPzeVl4B8bRbSudAa5RAglEFKqux5+eyrKYb2w8oOtQWCgs7phM8p7JBB66I9B1KTLIqMdS8JMH0tw2mQwuQKbkl5xf83qmxkPnCiYzXaG01AMfQHBNEsh3fzSKJ1crfHsu25PqOhpNMhriwzMj7InarR0eNgepxT0asfjYoRFSsXBgkUIQSwTQdFy+PpfjRLEuGQoKUP7GXQNckwQSYYRMw+HB+TylWq8Gypr7ZoZ472QCy3fRrgAKmdy8ezzOvdNDAc7T+JPGFihFJt/gj1/LUnbEhTMs2vilaxLXJIFEOBRPrJR5ZbncM2GYTMf49KERbEtsoASIN9+2UjImGgpbfGhmiLFEO1u7u7BAI7u+ag0WvLBQ5NHlkll4t/H4axfXBIHa0ap2fCvXkLB1qRFsYXjfzYqEbT590ziHkxF5f0MGwKbg58RpeMtIjA8cHmkboStyBy8NLQ21/lJKKvk8OJdnsSoBhY2BmGsV1wiB/N/+01b82Vyek6vVtlAGgY4CJG8ej/MjUymzPMHHFbYrhgsURG2Ln75uhP3jcaTGlkIRhEUyM7xojq9VeHSpbNKahMgKD8zS92sR1wCBdMdNyqvnMlW+fjqL5/lhWZNa022YU6ZjNh89NMJYRNrfaksybaQZi4T42evHSMUjYomUF8h9+Eqg2fT45lye+UpDSEN77qr7rfYHrgECibbUyOrLXMPjyGyWStlZJ2xtN6/7uH16iHfsSWCpLoi3kl+Sua1590SSu6eSKNULK6A4m6vx+VMZamZ2VWvj7m35xvoT1wCBfBsjCwKeWKvwwmK5tZisCyJ9UchYRZNMRvjb148yHJa425bQXrwKRmbTEYsPHRxmNG7C2oFO0ghJH5st8mymZnL3fAUVZLs7F7ueQK1kSK3INjy+OZunWHdaGrsbD/5CEgphQyGLT9wwxm3DsQ2fXyVM3KE1jFKqlSd39/60EMzcjjLKwf/XNSiN67j8xakMy1Wpk6fRqC4t9+g37HoCydyJPORvLZY4tib7mXZrfQ+++9dpGoyLdfOeJB/dP7T+4G5DaeK24tOHRpgaiUIrUic7hfv/ugW/L0+uVHh8pYxL2zJei9j1BBKB0rxarPPFk2s0mwGs7ASzBEK1WJSKhPjgwTTjUdtkOXSPsD7Essrrw8kwP33jKOGI3UEa+bCrFsig6rg8MJfnfNUfS16bFNr1BNJKUXY1X5zNkwlooZxCobXXWkWKB7dMJHjPRNKMEIIZmrRW6pj/PrQvzZ1TiU3m120NWsNcpsID83n6a6ek7mLXE8jVmidXqzy3UDAT7N1/2FrMnLEIingyxMcOpRmL2li+GAcgy629I5SMeRK24iMzwwzHw2ZpuHwexD0rBZ4LD85leS5Tbd//NYZdSCDfdRE3JttweeRMnlLNNdnQ3Yfvwvgy+/7rRrhnPIllxkJB5awpTEYDSu5NKe4dT3LvvhTakxWtclwA7ZsyX4WSw5+fyrBWd00Eo+06XguM2l0E8h+Yxi9GxVMrZZ5fKaGVbpWo6jY0WrIAtGJ6LMr/fMMoYav77VwOCkiFLT5+cIRIrJ2VEIQF0njSnwpeWSrzxGoF48ReG8wx2F0EMgMNbSYs5ytNvnQqR6Mh23cEBTEwHrGIxacOjTEeCW2rEN08FOVn3jSJbQcQxm5BgdhYao7Lw3M5zlWbILZ4W++/l9hdBDKPTQF1T/NfZ3OcyVQ2HtJ9mJD4rZMJ3jmRlIVygQjt5aHQ2Ao+cVAW3hHg2EQhmQhaK15ZrfKt88X1dx1E5GSHYZcRSCYWtYZn16p8ZzaHZJoYLdylidON0GhikRAfOTjKVDxkomPdb2dzEBEeDis+et0IqZgd3LUoCZ4oFE3X44HZHMcKNUPj7VEgvcYuI5DGRRbKff1MjkpN5ij8eZFu17b2nSOF5t4DKe4bj2JpjcLaVgGSkryKe8bj3D2dCsiNa+fe+UppLV/j869nqDiecLaLk9U7FbuKQNoUxHhytcIPlyvGDrS1b7etj9ASpkbi/ML14yRC/sB9O+nju1UwHLb4wIE0qYRMrrYPEPJvDRf5voKj50t8f6UspYEHLlz/QCMuRbHpcmQ2J/luVvc1r382Oa/GDll8/PAI16ciJrS74QvbAKUkYK+Au8bifPDQWLsfTPZ0t5UJpk+qdZevnc6xUneDcx13EHYNgRTgevDFuQInV6p+0lbXBUXO1j7nbeMJ3jc91KrtJr+3G/4SA0XEUnzquhH2jcXlEgNnuOLYWo3vL5cAv/zW7sWuIZAGfpCrcf/pVbQncTCZDQoCMq5KxUL8DwfTjEVkDsiXzSurthMclGgQJmI2P3PDKIm4uJjBjIlEfWgtlXyOzOaYN2Ht3Yy+J5Dv7xcaLvefyVEqNUT7agIbiShkH5Tbp1K8dzJFyPLJYwTTvN4+dDiaShYS3jeR4C0TElDoTHrtKlpKRLOQqfGnpzI0XFPJZ5eijwmkW5UyPQXPZKs8f76EssT7VwFuSa+1JpYK86nDUhj+wlYufGc7YSnFaDTEh2eGScft1jio62iNrUSpPXI6x1Nrne60WcG6i9CnBJKHoI3GyzdcvjabpWgKoXd73LMRdsjiY9eP8vbRRHsF2w6HpeGe8Tj3zaRbrlYQEAtkoZTGbXjcP5djqe7I5HJQxN1G9CmBlPyYHeUePl/kpeUqWgrEtBDErm4KxY3jcX7yQNoQuU8kQkEiZPHJ60bYMywL7wKB9iesQVmKYytlnlgu45mP+qa/Nok+JZCBVpwqNfjCyTUajitp/VgoJa6C2TSkq0hELP7WoWGmYmEwi/X6BRq4Phnl524axw53X5CVMkpL6RaRymbbGNkmJaCx1zai+xIWOIz7BlRcly/P5SkV/cLw8oC0Jpg8LK1580SCe8aT7fFV4GHh7kAZF0op+JGpFG+dStHthPF1bqFqW//TmSp/NV/E0YZYuwh9QyD/2Wit8LTG05qnVqs8uZBvuQWSGeAfKaHmbkABSisSiQgfOzzKRNTuy8R9qY+oSYctPjQzTDoeBuOWols+1hbhn6Pd/56r+drpLM9ne5DY22P0CYFMQNqoOA8oND0eOpunUA1uxtu3Mlp8Nd43M8w7xxOtTmvbwn6AXKeSIT7v2JPgLVNDMog0SaGBzZspKJYafOl0jlzT3VWRuD4hkBmYKtBK0vW/t1TkheUSng5u6YBuLUtQ7B2L8nPXDxO2/Azk/oLusA0oSIcsfuq6YRKpsFQGhkDcUek96bPjSxWeMJV8dguH+oBA2rcBMn2h4Xy1yZdP56jV/Ccf0NMwqUBKKW4diTMaCaHNcgmPtkQG1HpXofxFFgqpZ63g9uEYH79hnFCr6GP370Sem5y93HD5+lyepZ5tJxM8+oBAvlb0UApqnsefzRWYy9QCF+CWQtbw7GKZ/+9khvvPFTmaq1F2/F205UdofjHNesEb24a2fbFAK2wFnzw4zM1jidYRvjWXcVGXLFLrNJoTaxUeXSx1qsUd1UdXCqX7wCHVyLaCWsFfr1b57WfPUqwGuy3JxaBdD8u2iMRsRpMRbhtL8GNTCe4YjpMKKyxlSWoRWnZh2CHZ2W8EqWutePB8gc++sETJTERLpo+5cDMl0E2khyJ89p0zXJeKdFi+HdxRl0CfEEhIlGt4/N7Ly3xvNhfUcPeSkPmltqlRliISCTGRDHPHeIzbRuK8eTjGdDxMKiyrY1vM36HjJk9rcg2Xf/PSCt87k7vAFojrt/HdrUEB77thjH946x6GQlaPssSDQV8QyDNblHzzfInPvrhIseZ2/aFeOYzW1IiYKYhGFHsTEa4fj3PvnhRvHY0xHbdFCI2231li0h5bPrla4TPPL1CquMazN7vTBSTYqViIf/C2aX5sKoVt+q8f0RcE0mgqjsc/fHqB40vlbaVOp3ujNcbCyCI2fHcTCCmLvWNR/sa+NB+fSTMRDQEmarxDrJE2vxQaR8O/Pr7GN15dkbrafsQmACjEMr99b4pfu3Mv41EbW8kn/YYdH0TQQNODL50pcGJFlmlvqx6X2cj1wmUuxw97a8DB48xqlT9/eYVffPIMnz2+wiv5Og1PnM9gRPNKIeFlrRQhC37++mEOjCYkiyAg8tCye/DySpXvLZewlEQ2+xE70AL5l+NnmWlezNb4Z88sUCg1+05JtaJaNuwfinLv9BDvnU7x5nSEmG1BB+kwqTbbcZN+r3/1bIHfP7pExQQUgoLfL9eNxfjMPfvZnwibvjDQvrnf2dh5FkibJBkPQFNyPL46n6dY9skT3MRp9yEROa0V2oP5XI0jJ1b5rWcX+KPXMixWmyjaUS5Z/LbxHL2BXAe8ayLBnROJnvSwxmMuU+Xzs7muR/p6hR1GoLZrZJJ5eWq1ytPnSkZnKWOZtiMGd2Xwr1Vmf82AHHC1x1qpyZdfWeXvP3WW++eL5JoSkhel2wvRvTiUgtFIiPfPjDAUswNclCiKRSFjrcfmsjy5WhVF47cXRLMBYIcRSHpNAShNvuHx0HyeYrXZ6vTO4/oCFxBCNr5CeyxnavzBD5f43ZeWeWatQtUsf94uXayMQNwzHuOdM8PoAIqyCHxiSkSlXnU4Mpthte4E1F5w2GEEQiyMlv8fOlfkhUWJuvWuWztb2nyrIhJtje1H4y7U4MbCotAKKnWHx88U+J1nF/n86xmWa76y2PiN3kApSIdt/sdDo4ylIzIuu+Aeto6WOhSzy8srFZ5YKRnS9g92HIF8rXe63ORPXsvQaAY7mN2IltuijQvWYUTkkzfoMnNMp+gL8S8vDhrNSqXGl46t8n/9YImTxYb0g/lB6x6PETQ3pML8TzftIRSW0sAt9dDt6Jzpt3LN4+uzefJN2UGjI5ywo/EG0rCNUJqKq/mL0xmKxVrvxwQmWZSOTXrb8z56w/jL6GZfyP3XmyDNOmiM5dW8dL7IP3/2PF+Zz1N02ks1etUPPuG1hh+dSnLbRBKUZCNoJCASBLTSvJat8ZX5PK53hf23jdhRBNJoPA0vZKo8db5oNFGv4JsZjbI6WlVehwaW5eKA7IKtRNykFjVG2I3Vap/hMuiwUcbSnMtV+KOXlvhPJzOcrzkiwL3rCJN6pBgOW3zkumHSHXsNdS3B9CLwXM2RUxlezNWCnIbqKnYUgdBQcTQPzRfIlPyifL2KuGkRZk9+0MhrV5n/NVq7aFfWMmjHQpuFLdqvZqJ9y2VfAYV8K+cvapOSXJW6w/2vrvEvji7JuMjPGgoYkpemUWgsBe/ak+S2qRS4pji/2lC5pcsoFJp8cTZD0emPnVd3zESqfxEPLuT57NFlyjXH6PPuJDP64uyfSSmwLUUsZBO1FTFbEbMtIlGbeNgiHQ0RtRVDtsVwJGSK1LavxUJRcjW5RpO6C2u1JrWGS7XhUnM9Sk2PuuPheu0SUqqjfR/GCTTnFZYoJUIsj0axbyzGL946yTvGE4Qt/xvBQPvta3GrAJ7L1PiNZxcombm4wCTGnDcdD/GLd07z/r0pQj1yXa8W20ogIzItoVysOfzjpxc4s1YzKaSinf3P1wvberTEShk/3VgEpcAKWYRsi1jEYl8izFQsxN5EmFTUZjwWYjRiMxoOkQpbhG0IK4uwJQUJQ9CxXWMnBRSu1jS1uJ1118PRUHY8cg2XxVqT1WqTlarDfKnB2XKTYt2h7mi0c2G1Tj8DQe7N7xnzGZp9IzF+9qZxPrQvjW35VxEsmTBX4niaPz6V44uvLOE5MhbqvL5uQJkxoLjPFndOJ/n1t04zGQuZ5+i32d12t4ptJZAvBhpouJrPvZ7lL19eMe9dKCK6IwtBXssRGkmB0TJckWUGUZvRRIipZJQ7RuLcNhJhJhkmFbKIWhYRU47Xwh+gex0DZNPOJrWfcFWiRxaSKKm1wkPjeJq651FxPBYqTZ5Zq/GDtSrzpTqlShPtyLIIQPwn7Wdum4lG5D2lNOlEiF+4dZKf2JcmYvUysADZusM/fmaBkyvVwPaalWcrE+XhsOJ/e8s0H58ZBuioINT9dreCbSYQYAIHz2Yq/NbTi+RrjbYAI7livhD5pZJEcERIFRCyFHHbIpUMc/NYnJuHY7xpKMrN6QjDYeuCTu8UeEFHYfgOC7NZaLRZ+yOROmGzUFz0qa9B5a+mp5krN3il1ODoWo1X1sqs5WvUPFmfo83xYkn9C5N7t0IWP3/LFJ86NEw8JBY6aGjEDf3GQp7fP7rSWngXBERxST8OD0X4N+88wI2thXdyxE7CthLIfzCFpse/f2WZb5/OozFCqM1iNL/LlEi+CJciEraZGYpwKB3lYDrKjUNRpuNhpmMhkqE3iI3ozl3qjD3TJiMZRNODP5Je99VLQr7cPk+HnTQX3jqkBXMdNdfjfNXhVKnBS9kqL69WOJWv4zieBDNU+2yYvknHQ/wvt0/yEwfS2D1aY6S1ZrXh8rs/XOKvz+TRgVm/Tsur+cBN4/zSLRMkQ1Z7fLaDsL0EMgL91GqF33ruHMWKY9wfpCP98K0nblksYbE/FePuPQnuGI0xkwyzJxomailCRng73ZqLC7ESu+Af53O143quDu12BBc5jzmkZaVab4sFq3keyzWXY7kq31sq8YPVCqVyQyyRTySjVN49M8yv3zlNIuQXBAkW2ngKj6+W+e1nzlGruRe9xa2g0z33H0w6HuaX3zbNj04ljSWXI3cKtpdAxlX7qzM5PvviEp5nQsKmgyw8wqEQU6Mx7pxI8GOTKW4fjhKx2hbGn3NTl1ykdmmhbnlJPgda35BaDKBBXdyqGQO27styX1y8vTeANucSX1+E9eVCg6+czfPX8zlqVRfPJ5CneP/hEX7lLZPE7N4QCHONTe3x746v8bUTq+beZcxyJfe6eYhCu2tvmn9659SOXHi3rQTyNfJzmSqfef4cK8U6KEUsZHEwHeWWPUnuHItxy3CMfaaKZutLV9CNxvaYh21et1hjSGRe+3wR0siHwg2/Tb99M1dkzisX0/HZpq/uQvjXiImAHc3XeWyxyA+WyhTqLvtTMX7+zePcNRa/jOLoEsztiOWEc9Umv/r0ORYyFVEVW7vdN4RYJI94NMT/evsUHz+Ybo2Odwq2lUDi50qpqu8uVXj8fAllKd4yFuft43GmYiFiIeV7LeYhmb+voBfbBBItL+8JJPet/ffF0W6wRSDt704k7yrVYXWu8Poujva4SQNVVzNfaZCte+xLhNgfD8scyZbbuTzkduRexZ3UHJkv8AdHl6g13I6euXQvXilEf4k9P7Qnwe/cs4+9MV+R7gxsM4E8MyaRzGTfe1PKfIaFpWn5/Whag9fNyo3GaE6pLIeFJyWnzBlcrSk7HmXHo+Jqaq6/PaQRGCMaCkXStojbEvEbClsbxksa13fnhFJXPeDtFESJ7nl4RvMqOcCM266ygauAr+xQQqLVhsO/fGGJ584XoHPg32W0x0UeP3nrHv7BzRM9C5xsBttKIHwBNVui+5nO2pBmYzfJ+742vHgXdt6MT4OGJytbS02XtbrLXLnBfKnJUqVBqemRbTiUmx4116Puei1BkROasyiIhSzitkUiZJEO24xFw4zHbaYTIW4cijISCTEUtkiHLCJmbLLxejYFPzG1ZWDkTL6Nw19isOkTbh0SYPFfg4vmO0tl/u3z5yjWg0m38l1uvx/jMZv/894DvGNcVsz28PbfENtOoM3hwmG5f9HSuWLJ/CesjVt4vtrklXyd14t1zpUaLJeb5GoOZcej4Xp4jj/4bUffNnZGJwkU8oeItxxv2YqwrUiFbVIRm4lkiJlUhINDMW4einJdKkzKFmulNHh4xm3sVAP+GXeCSGwOGk2p6fF/H1vmsVPZdsQ0CLQUJ7z7uhF+5bZJRiOW8SS2F31CIEGnYZC/RfC0p7Eti4bnsVRzeSFb5buLJU5nqxRrLo2GZ/K6xH8P4o59oinE4wyHbZIxm7FUmHdMJHjneJLDqQjpsI1uzWet/177TP0BreFEqcavPX2OTKF+gfLpNpSCZCTEL751ig/tTcu405+D2Cb0BYHWC5ixRloktelBruHyUr7G40tlnl4pUSg2ZBIS6XXR9mJtfLcgKIhrpeU6PXPVCiLREG8ai/HOqRR3j8XZnzCWyWrbuH4jkT9v9qensvznl5ZpusG4cuuhuG0qxWfunmYk4ufJbTymd+gLAkGn6ySoe5oTxTpPr1R4cbnCbLFGqeq0xknbhcsR1LYtJpMR3jQW4+7JJG8bjbMvHpIcOjApO72b27laaP+X0ixWHT7zg0WOnpei8UFCobBs+LnbJ/nbh0YJqfWT571GXxBImwCQZXZnOFGo88B8nh8ul1krN3FcjGVa9y2jnSQ65FuGoO+2HTVqN3QxUik0sXCIg2NR3j09xN+cTnEgHpZvXzLCts0aYh3krlwND54r8gc/6ChQf5F77ibSiTC/fe8B7hyNbWtv7DgCrRePtsA7GmbLDY7M53l4Nku95spjstpzO/0GZUL3SkFqKMKnbxjnx6eTTERDWEazXjjn1V7msVPgAYWmy28eXeS52QJYhkBaG3c2gGv1PN5zwzi/dvsEqZBZMeu3py2jhILHziOQFrdAmTmfpqc5XW7w8LkC3z1bZLnQaM2I7ypohR1SXDcS4737UvzI9BAHE2FCVitDtb2EvPWlndMJGsko+c1nFshX/NXEQUGmPNKxEH/3rZP8+PQQtpmfahMnIOJuwI4ikDZul3/fNVfz1bMFHpzLMZur47qyc4C6iMPW99AWKJkuDYcsZtIR/ubBYT68f4ixiN0mkfntrxbdKZZIA01P8/lTa/z5sVW0S4A5cgiJlMVb96b452+blj7ye6M10Rw8dhiB2pGdlVqTf38yw+OzOZmv8X011bnwbXegNV5oKQ95JJZSHJxM8vfetIe3jcZFy9KRNtQrKdkktIa1psMvPbXAmdXgduSWCXdZ8h4K2/zvd07zUweHZH2Y6Y/e2J8dRyBNw9P89WqVL5xc4+Ry2ZhrPxNrl6Jj7RP4OWDGzmqIxized2CED8+kuTkdJW51uiq9EJPNQZu9Yx9YyPO5o0uUG+2Sxt3ExkDN1HCMz9yzjxtTUf+AnvXKNhNImvazDMqOx1fO5PnqqSzLpTroYCM5/QTbUkynIty1d4gP7k/x5nSMkD/776c9mde++PRKC7chT2u55vA7R5d4bqHYm6enFO+/foxfvnXcrI/qnWO7vQQymbZKaRZrLp97PcNjr2dpuGb/U22t08zXOnzBGEuHeO+BET4xM8wBsy2IH1dRZnwkhJJZxl4TyUPz+EqF33jqLE5DdgQPGsOxML96117eM5GQfupBm2w3gbRx+2fLTf7jiVWems+b93Q7vtuL3u8j+KFvlCI9FOGnDo1w32SSffEwiZAQyM8RE/VEz/qwJUgaqp7Hr72wyAtncj1JFVAo7juQ5lffMsVoxO4oQhIsto1A2iwlOJ6v8/uvrHBsuYzn6ZbjoQzBevTs+wAdnn9Hv1jGtbt1PMG7p1PcNhJjMioC1Mre7mE3anzPAn7vlVXuf2Wls6ROgFCkYhZ/544pPnpAKvn0pNXtIJBGom1Prlb4D0eXOV+st1wQ34+WwEGQYdD+g+roHcQItYINSimSEcXMaIK7J5O8byrJoWQE+yJZ5kH1qNa6dX35psc/eu48J88XemKBQG7yhqkk/+EdB0j2qGJRzwgk3SraU6N4dq3Cv/vhEvPZGsryU+G3dilCOnOOVmRLd8wdyZI6/+jOQvFSRuoic0xaMgLk5cZzbz8671kppPSwpYgnQrxtKskH96Y5nIoyGbMJW+Leaa2l0qpS69Y7XU7g/GfY/tsELqRMA8osKiw6LkfOFPnCy8t4Zk/YQCEXhkJhhy1+8x37ec9EEgJUFj56RyAtaRaeVjyfqfL7L61wKlsVsdTdEUq/sy51lg5HqEUOEUDzFMzAWw7aeE3mmHUwAriDoEwajVIKO6yYSIZ4czrBjaNRbk7HmIiHGA7bDIWkAmt7Pqnj/jQXPA+lZeUwpu8wAYti0yPb8DhbafByvsqJ1Rovr1WoNkwwqEdQRs4+eds0f+emUeyAyyDTWwKJ0D6xWuWzP1zkfKFuCiO2ffp1FuQqoBCBl4lWOY//qv3/BsJgXq4TGH+eRYNZqtz5PX9rQnPYFq44QLTuR6yEUpLhkA5LCsyeVJh9ySh74iGuT4bZGw+xJxoiHZYwsDyTjv4wfVB1NWv1Jss1l9PVJsvVJvOFOovFBtlqk1zDxXXN6tWeT0Mo8DR3HxrmN94yRTps7w4C+S08mynz/7y4xGK+LokFXR7iiL5RZkmASWb0G9dK0h4tM09gPDlZj9PeOEprP4FVrJHn+hFB8x4WyjJuiZZifxs19XZjnZUFU6/AFfdVkgzRnof25L7DCZtENEQqYpMK28QjNmOREMqMrQAqjke21qTiaIoNh2rDo1Zt4DVNxS9FyyVUqp3U2TsCGWXhKQ5Mx/jdu/azNxoOfPjVGwKhOV5o8G+PLnN8pXPNiBFqJG6/lStRgNYKK6QJoQhZNomIEqGI2gyFLRLhEKmozUgkxEREhH84YjMcts0JoOzCWr2BpxW5pkvBcclWmxRqLsWmQ77mUaw7ND1N0/W2dM2Bw7igwn3j1nVYTFEaltnOxQggPhloCaWEzk38vCWQvpWW/+XcHYGfjtMFDtOWL0OTY3H+9T37ORjvYwK1NY9ittzgXx1d5vhS2RRO3Bw2ulvrXDz/spUiGrEZi4eYiEfYnwpzMBlhXzLMcMQmHbJJhSxSYUXUFGS0Oqq6bOxgn9IYl9MzTZUdj5LjkW24rDVkx4UTuRpzhQZLlQZ1sxEWWpIc/Wter4HXS9VWXdaew7/0nXzJWnHT3gT/6u372BMNBc7hgAhkxF5rluse/+KHixxdKKL9wM8mWhRNKe6GsmSTK7SWtSZKkYiHuXksxi0jcW5OR7kxFWFPNIRtyvzK1MPlu+9iR1z28rSHCzieItdwOVao8mK2zlNLJZZyVTyzwK8VXfSDES2LIMQR12rzCmWAy0N7mvfeOMKv3z5F3O7bMZCUpi05Hv/5tTUeOJnB8YQ5bb/8UtpXhAsApQlZilQ4xHgyxOHROPdNJLl+KMJk1CYZkk4SwpqvrBPS7nahNOFHoZA7kbErSzWHo7kqjy0WOZWpsVZp0nBMuWJj6tqDawmpD+a6ugPpVwDN37trP5842JvJ1K4TyNwDAH95JscXjq1SrDmXIMtFoMEOSbToxpEYd+6Jc2M6yvWpCCNhW/b2QXxvz98+BN3uLt/Udb7XVfjWxPylhehoCevWXM18uckL2QrPLJc5sVqlWHdlssQyJbgwFnaArkAUpWYoGeH37tvPjUMx836wCIZAwOMrVX7nhQUKZSFPS0EYC3HBmh4NWnvE4mFum0hy70SCu8YSTMZCDIUVdqu4e/ty/TP4dqblIrY+C4JApv3WqeXOfMXh36kytQKKjsvrpQaPnCvxxGKRfKEhX7NMlHCArkEp+PEbRvk/bp/q2DgtWGyZQG0tKkLsaThdrvNPnjnHcrYmmtmENH10zvqDJhq2GU9FuGc6ybsnktwyHCNt9vgROb0UEYKly6Xht3ixa/DVhvztas2JYoNvnSvw5Lkyy6WaKQPVJn/nxXe6uL523dKD2mXY2D8azcxIjH92917eNBQx4fTgpWHLBGppZBRae6w1PP7wxCrfej3XKr7eHof4mlpjhyz2JMK8eTzOW/ekuHc8zt54SHK32qfsMSGCQWcHu9pjruzw3eUSzyyWeS1bpd50xXpuiDqCaNEtP6Jdhk558v9LxGx+/tZJPjYzbPa3lSODRhcIZG7DPPO/msvyRy+vUm1IjTZfP/sHWiHF/uEof2PvEO+aSHJdKkIqZEnIwB9ot0+9y+ArEIWjPVbqLs+sVXjkXIljSyWcpita07i4nVp2gDdGKGzzM28a41OHRkmFlaFYb6RoywSSBywXO19u8MtPnWU131hvXrXGtmFmPMkH9qf58P4Uo5EQ2v+2OUX7lntz872G9jWKsdYKieDVPPj2Upkjc1leWy7jmCkl6V0/TOL/PwCIEgJIJkL8wi2TfHxmiLBlopvaOP0734Vra9Rc0+G3f7DMs2cL5iOZB0nHbG4ci/OuvUO8ZyLBZDSE5QcRlHxXbrdtgXYv2upGet2/X4l+ZOsOT2WqPLZQ5PhqhVzNQXugLXfdGHIAIcdN4wk+edMY75tMSvmvlkvXJytShTwaF/iLM3k+9+Ki2aZRCmHcNTXEBw6kuWMkxkjEbq1N6dG99RX8h+BpTb7pcTxf5ZGFIk8vlilWmq3oYstX9onoW/lOi9/Pbp/2cxlp5e75EqqUzCWGwjY/MjPEpw+PcjgVIWRtXynkLRJIvtr0NL97bJUHj60QiYe4czrFTx8e4W2jcSKyqWUPvdL+hjb9qlDUXI9XCzW+sVDku2cLlMuOJL8qbQILfq8aal2w/KIf4V+/nw7VoRS0ZnIkxqduHOOj+4eI2raZu5BjtgNbIhDQmkk/nm/wtXNFbh+O8u6JBENhG9AdIejtucF+he/sKRMCfy5T5ZsLRV5eLrNSaeC6vvoyGdO7ZnLWl5c2bEsxlghz21SSTx4a5dahiJGoToWxPfK1dQK1rl/T8CBssmKlI7bPtPY9TDJrK6NCK8qux1y5wXcWSzy9VOJsroZjNgmTAXP/0qfTgmhEsJStGEtGuG86yY/uHeK24RiJUIdEtdY+bp+UbZFAJn0FUMoztsi6zMTnAJuFuHK0UoTEW1HUPY+VusNjS2W+tVBgLlPDbXoo4y5v6ZFuI2ShoodSkE5FeM++If7WTJrrEhFitjmiNQnfkZncq4jBRbBFAnWi0+kYIChsdFiyDYfvLJf51rkic6tlyg2N5+9n+oYrQtcrOF8ON75/5bjY9zve6xB2cb+E7L7MREMWIymbe6aH+OC+NLemo63A07pTr+uEi7XZO3SRQAP0GvLghCKZhsuJfJ3Hl0ocW60yX2zguB7akzFSK4BuhPhi1Lr4u1cPZeYAJZuCdQEOZX7ZlsVYIsyNI1HumUzy9vE4++MRqdXQB+p4QKBdAIlQgVaKquOxXHN4NV/j6wsFTmQqVCuOzI1IhqX51sWK9G9Rm2+0MNCuhKTkc+15KNsmHgtxMB3l/ftT3DEaZzIaJh2xMDv9CHbQdvZvhAGBdhlk+y0RYEd7HM83eXi5zNHVEmczFZyGh6ekboGfLtTpfm/JAvkTmP54zbhoUoUCYokw14/GuHtPknftiXMoGSFqy/c0PmH87+506ggGBOp7mMcnEtjejVyb1B/z93KtybFCneP5Oq/lqqyVmmQaLoW6g/YMgVpjpva45ALhuMiY3T9GLI2HbVukwjZjUYuRRJiD6Sg3DMWYSUW4MRlhKOynJgnV153TVDX1ybQli9gDDAi0ayHCt/HhNjxN2XHJ1j3mqw2Wyk1Wqw7zlQbnqw65ukOt6eF6LlortFZ4HXUsLKWwLCGarRSWbTEUtdkTCTEZD3EgEWI8HmI8FmEmESYdtkiELOK2dYGHuLOpsTkMCHSNQftDFYzyN/NNTQ+a2qPpQtX1WKzJ5s1Vz2O57uJ4YCnNSNhmNGKDBRMRqSNnW4qIUoQtCKn163A8rdcVcdlt+P8B1mHo2UiEa/UAAAAASUVORK5CYII=;" vertex="1" parent="68ylDHR1GUJ3_icKr76c-31">
          <mxGeometry x="16" y="60.37" width="41.47" height="32.5" as="geometry" />
        </mxCell>
        <mxCell id="68ylDHR1GUJ3_icKr76c-38" value="" style="shape=image;verticalLabelPosition=bottom;labelBackgroundColor=default;verticalAlign=top;aspect=fixed;imageAspect=0;image=data:image/png,iVBORw0KGgoAAAANSUhEUgAAAX4AAACrCAYAAABhXvfUAAAAAXNSR0IArs4c6QAAAARnQU1BAACxjwv8YQUAAAAJcEhZcwAAFiUAABYlAUlSJPAAACjsSURBVHhe7d13eBzVuT/w75TtTV2yqmVb7gVs3MDYGNMJYJsLxtRcQr+QUAL53VzyIyTkkl/CL4QbErANJARMTIJNCZhiiDHYYFNMce9dVl+tVtt3Zu4ftkCMpdWc2dki7ft5Hj2PnzPSerSafefMe855D6coigJCCCE5g1c3EEIIGdgo8BNCSI6hwE8IITmGAj8hhOQYCvyEEJJjKPATQkiOocBPCCE5hgI/IYTkGAr8hBCSYyjwE0JIjqHATwghOYYCPyGE5BgK/IQQkmMo8BNCSI6hwE8IITmGAj8hhOQYCvyEEJJjKPATQkiOocBPCCE5hgI/IYTkGAr8hBCSYyjwE0JIjuEURVHUjYQMRA2dMcTkY5f7521xbN4dRm8Xf2mFGYPsAiYWmgAAZp5DsV1Qfxsh/RIFfjLgbWkO4c1tIazaEfom0EdlBdFY75e+IHIQuGMBHwA4ABeOceCckXaMLDCrv52QfoUCPxlwgjEZDZ1xbGqI4PdrfIjEjbvEH7qwCGfW2tTNhPQrFPjJgNIWlvCnj7w42iHji8MR9eGk2Bw8Fs0twbD8Y+kfQvorCvxkQIhKCpZ95cdb2wPY3xZXHzbEnFEO3Ht6HtxmmhNB+je6gkm/548peHWbH09+5EtZ0AcAt5mDWTiW8yekP6PAT/qtmAx8ejiMW95qwaPv+9SHDSWIHMrzTLBS4CcDAAV+0m99sC+AX65qw74DYfUhw5U4BUyqsqibCemXKPCTfklWgJ+/3YaWgKQ+lBI2kUOhhT4uZGCgK5n0O6GYjMvfaIYkq4+kzqgSM4pttICLDAwU+Em/EojJeP7LDtTvT316p7uFk1zqJkL6LQr8pF9ZsyeEpZ93qpsJIQxoHj/pN3wRCX9Y58XKrSH1Id1KXQJEnkNVrRW3jXWqD+OlL/345GAEK64dpD5ESL9FgZ/0G49tbMeLH/nVzcwsVh7jBpkx1G3CgolOuC0C7GLv0zSbghJKqEAbGUAo8JN+4XBHFNe+1IxwMLkRXZeFx4/n5OGkQTYU2yjTSXITBX7SL9y33ou1n+nP7Qs8h+qhFiw9t1h9iJCcQ10ekvUagxL27NI/i8dp4XHHzDz85ewi9SFCchIFfpL1PjsYhi+kf6HWhDobLh7lgOl4bX1Cch0FfpLVgnEFnx8JIxjVn5G8foKLauwQ0g0FfpLVwjEFvrC+AV3RxGHxFaUYRfXzCfkOCvwkq311NIyP9+nL70+rs2E4bZNIyAko8JOs5o3o6+3bHDzOrbOD9kwh5ET0sSBZLSLpy+1PKDZjcimVUSakJxT4SVZ7bjP73H2BByZVWmmLREJ6QZ8MkrUOdUTR3sK+laJZ4DBrmE3dTAg5jgI/yVq+iL65+zzHodxBtXUI6Q2VbCBZ65WtfvzmX+3q5j6df6obP5voUTenxRdNEexrjambE6orNmFcEY1HkPShwD9ArVixAuvXr1c3JzRt2jTMnz9f3ZwxcxYdRijGfnk+fWUpRmVoGufq/SH81+st6uaEHr+sBBNpIJqkEQX+AerWW2/Fk08+qW5O6JZbbsETTzyhbs6Ien8UVy1tQiTOfnm+f2sVzBnK9NyyuhVfbwmqmxN688YKeGg/X5JGdLWRrKQj3gMAPDY+Y0E/JivMQb92sAU2E30MSXrRFUey0paGGCSZPfrfMiNP3ZQ2BzrYZyCdU2lDgj1gCEkJCvwk63RGJbyzI4i4vkW7GbPykL7SEoSkGwV+knViMhCX9EX9WreobkqbdV+xLzarcgqgatEk3Sjwk6zjjyno1JHkL3EJsJszE0UbAnFEGctLVBSbUFpIlUNJ+lHgJ1lnR3MUe9vY8+WTqqwYlMEeP6tqp4BK2sSdZAAFfpJVJFnBgdYoYklsvJIJ65piaGc8Z4+Zh4vqCZEMoKuOZBeOg47JPOA4oMwlwpGBqZGyouDAoTAiDCWkRZFDXa2V8vskI9L/KSEkgZikYI+fvUaPxyFgXHVmVr8GYzJ8jL19q8BhZllmzpcQCvwkq0TiCtbvCamb++QQgBpHZi5njuOgZwG8LGt/QiDESJn5pBDSi+1t+vP7mcqabD4axbs72FbsmgSgyp2ZekKEUK2eASrdtXr8URkf709+AdNubxTPf+pXN/ep1CXg1unGrdqdWmOBx6Jtxs1LWzrxu9VedXNCl810467xmakgSggF/gEq3YF/lzeC65Y2qZv7LZYKn3oC/5IFRRhTTJvFkMygVA8hSVq+n31MgpBMosBPDPEUY1XKbFaZJ2ru7QdjMg7sY0txVXoE6u2TjKLATwzRVB9VN/VbV0xyqZt6dcDPvsL4qlO0vz4hqUCBnyStNRRHOEZTEwnpLyjwk6TFJAUDZYYAxwO1Hu2F0x7eyDYDiRc41BXSwi2SWRT4CelmeIUFRW5t0zgDMQUHdrEN7A4vNyHfqe31CUkVCvyEdFPjEFCgcf/b1rDEvGJ3iEuAx5SppWaEHKPtCickgY+a42gM516O/5UDITCW4CckK1DgJ0lrbYoiEur/gZ/jgfI8bRU+Y5KCQ/vDYOnw8wKHynwz7Bpen5BUopW7A1Q6V+6uPxjChkPHct08ry+obT4awSYdU0JPqbZgaCH75is9nacgcJhaa8Wk4r4HX70RGT97qxUbGfbZLXIJePCCQpys4fUJSaV+GfiHDx0CK8/B0kMx87iiICApWPn2Oxg2bJj6sGHOnDULRw8fglM8MYAAgKQo6JQUvPzqaxgzdqz6cMqlM/BLigKdW+QCACKSgj997MOrm9j2rLU5eNw3pwCzK6zqQ7oJHCD0cF2p6Qn81fkifn9JEcqc2mcNGSUQk1EfkCBJ2kpeD/aYYe3l2ib9X0oC/85tW9VNCckARowcBY478QN38MABdLS345SJJ8HMcTDxHNo0zBn3iBx4AAFJwROLFmH6jBkYNWq0+ts08Xq9aGo4ignjxoFTZNgFHu1xWdOGIR6RA89xCMRl/P6xxzBrzlkYPVrfebBIZ+BP1r6OOG57vRk+xu0Wx5eb8d/nF6HAlv5ZMqsPh/HQqlaEAn1fi13GVliweF6JujklIpKCxqCEfR0xAMBTO4+trGb5uF8/zIo8q4i6fDNMHNJ6IwjHtb+v3Qk8j1Rl0iI9DOhoeT95joNZODG2GSGqcSp19/O0inxqAr+L8QKJKQp8wTAslm8fgb1eL/76zNNYtHgxDu3ZjbgChLVEWhUTB1h4DlEFeOS3v8GsOWdj/IQJ6m/r1aOPPIJPN6zHKytWIKoougfzus4jJCt49JHf4rRZszFx0iT1txmmPwX+DYfDuOuVZnVznzIV+GUF+PvXfvzPh+3qQwn96LwCLBjmUDcbJiYr8EVkbPLGsK8jjvqghB2+795M9Xzcx+aJKLLyGJFvxqSi9IxRrDsUwPr9EXVzn8pdAi4Z44TdZPw18cz2Tvhav/t+atlT4cLRdowsNO6ptEsgJmPpl34ENJQx7zrPco+AheM9qQn8PfXcExE4IBD6NvB//9prUL93N97/aD3iCjTd0frCAbDyHIYPr8OqNR+iuCRxz+vpp5bgtRf/hjffWw0Z0B3w1brOo27YULzx3mpUVlaqv8UQ/Snwr9wVwENvt6mb+zS9xob/d2EhRA2pGSPFFeDpz3x4dkOH+lBCz15Vgrr81OX3NzRG8NqBEBpCMqK9dJKS+bhbBQ6VDgFzq604qcT4QNbdpoYIbn6JvdrrmDIzfn1hEQoN7gw0BCVcuawB4WDfgV7tmYXFKQn8z2/swJINHYgxBKfzRzrws7MKsmtWjyRJuPOOO/D6shewat16xAwK+sCx1wnJCr7avhOjKgchHOp94c17776Lu2+9GSvfW42YYlzQR7fz+HrnbkwYUoNRdcMQjbIPag4kcZ3vb/VgS9qDPgAosoK4tlT5d/CMHSItZAXY3xHDD9a04vGtnTgYkHoN+skKSwp2d8TxyOZO3LGuDQc7Unfd2k08UvB26aIAeHhVm66gj+NPYkbzRWRsaYoyBX23lcf1U4/VicqqwP/Qgw/imSf+CK/O/J5WrTEZk8eOxrbNm9SH8OorL2PueecgIusPSFq1xWTU79+LKy6dj6bGRvXhnLHkK7ZBXRx/crqkKnW950SO+CUs/Yytt+9wCRiap63ip1ZtYRkv7wti0bYAoqn9yJzAG5GxYn8InVEdd0ANzFYeBSXGvl96bWuK4qiOYnxd/vhlQN2UtM8OR7Bmd++d155MqrSgwnVsYkHWBP6bb7wBv3v4IYRkRdOgabK27N2P66+5Gnt37fqmbcmiRbjxyoWIKkAkHScBwB9X8M6bK/GD665VH8oJ9f4YWhv19Rx7mpKZDod82mfydFl4ilvdlJSmQBxPbvXj5f1BHArEoSiKpi+O4wz5cpoFTCu1wioam1Lp4hI5jPCwT9PtOj+jxGUFH+wN4nC7/sDfcCQKX8TYO/PSjT51U5/um13wzb8z88npwRvLXoA/rqS8l91FAfDpV19j6pTJAICXVyzH/ffcibZwJGWPyj1RAAQlBWvfW6U+lBPawzo/UBxQ6WIPDJky0mNcgGwJxvGnbZ3Y2n5sxk66XTvMjkem5mFKiQWM8zg0s4ocymwpenEGTZ0yXvyS/Ym0O1kBggZmMba2hLG9ke1vf/eZ+fB0K0WS+XcWgI3n0BKTDcvnayUpQKSzAxs/+QS7tm1FeyhiaD5fKwVAe1yBx2rBrm5PILmgKaLvDZ9xihMZSO8DAB79in3TGZtBEbI5FMezOwPY3aHzhpkECw9cOtiGMypscJq4jL3/ieztjOPzVn1PkGqhuIx3dncikq7eqAYRScGDn7BVhM238ZhU9t20qDFXY5I6MxFtj/PHFZx/+nT8/P8+kNaefk+keAwP/vT/qJsHtKc+19ebuq4uddMiE2kLSWg4yDbN8KQKC+oKkl+01RKM4y/bO/FFG1tvzwgzSi24us6Jc6tsKZsnb4RYREZE5yCs2kFfFIs/YhvLSbX3DodweC9bqvG8kXZU5X33+sviP2H6tMVkRJOY5maUoKTgozXv45+vvqo+NCA1BmJoa0l/zzUZrTpSUxMqLbAmGS2bgnH8YYsfX3nZ///enFepbYrhmYMsuGa4A2eUW2AT++7m7/JG0BZKbtDXInAosLKnx2JRBWED6ka1hOL4nw/Z8+g98cdlbGhO/mbti0h4e3OAKTMyyC3g3JH2E1JyyV2NacRzPX8ZIc4wZZNL4bkoAOpbvfB7W9WHBiS9G7gIAofRGvfENVpIx2M/D4CpmpuKNyzh6e2d2OPXF0wdJg5OkcNFVRbcP8GFX0x047nZhbiqzoF7xjrV3/4Nh8hheokZ/zbEDruGgC8rwIbDQVy3tAmPrfOiM4mpRhwAswBdUzr1/6/HKAqw8mAEm5qSD9YAEIko2H2AraBfTzY0xbC5iS2NVZVnwvAeNv7J6sDP4dhqVx7A2KG1+OGNN5zwxQMQuWOLwFLJzHOw8RwGV1WecA4/vPEG3Prv34fIHRuvSOZUJEXBmg8/RCjBOoOB4khI0TXHeerIzG1U/pdNbFPzRBOHqnxTUusNNrXFsEXHrJJCC49xeSLun+DCQ6d4sKDOhREFZk07jNW5Rfx8ohu3jXHBZe47TOzviOHvW/346RteAMBHR6LY3sYWpNTqKq0ocLMP4DcG4ohq7cn1oCEYx8c7A4hrWBGrVXtERiCJAd5gXMH7OwNMJUIA4Kdz8tVNQDYHfp4D7AKHBx54AMtXLMeS51/Ao4uWnPC1fMVyLF++AjNOPRVuDb0SPcw8BzMH/P2ll7B02YsnnMOji5bgsUVLsHz5CsyefQbcIqf7RhRXgOeffRZ+nzGPmdls3Z4QQjp6hZOLM9Pbb49IaGKcTTGk0IRRpfrPd78vijcOsncCbAKHhUNtuHWMC1VuM4rs2gJogYXHvBobfjDSiTKHtp/Z74vjgbdb8ae1PoSO19EK+CU8vsaLQ8drBekx1CUgPwOb1nxZH8bWo8ndtIy2oyWCj/ex5favm+JCSS9/w6wM/AUmHsOHDUNrIISf3P8zzJ03H1OmTlN/GwBg7rz5uHjePKxa/T54qx15Bgf/IhOP639wA1oCIXxv3nxMP/VU9bcAAARRxMXz5uHVt95BU2cIZg5w6Iz+Anf8cWcA80UkHPXGkn78TadwTEac8QnFaeLh1tBj7o0vIuFIkD3F86PRDkwrs8FtYcuT3zHaibm1NpQ7tP3cgY44rl16FLsaY4jHvvve7GyO49dfs81AyQb/vcqLmIG9fSP4QnFEGDc7unzcsVW6PdF/RaaIXeAwbso0bNu5CxaLRfMiHZPJBK+/E6NPngiHkFy6BceDr0fkcN5lC/DE4sXfKSCXiCiKMFss+GLLNtTW1urq+UsK8OEHH6qbBxQdbwtwPHUyJF9/DzoZ7x+J4miALQiLPHTPgvmkMYLfbtaeWrLwwKU1VjwzqxBji7UN3AKAw8RjsEvE/Se5MSzPBJ7r+/PTFJDwn2+1YOFfjyJRBmPH1hC+aGLrqWbSS1s6kiox3puOqKxrfAgAdraGv0mhafX9KS64EwyO67wkU0PkgIsuvgSv/PN19SHNXlzxCmaeMVvXoFB3IgfcdveP8dzSF9SHNBkxciSW/PV5DKuuUh/qU1BSsHDB5ermAaUpLKNeR092RJkZ5Xk9P76mUkxWUN8YYesJckBJoQlOHZE/GFfwzhG2gHlRtRXnVtuZSgDzHIf5NVbcOdaF4fl95/4BoDkk4bdrvJpKBoRiMt7YEfomBcTCYeKZfpdkecMS/vBBaqZvbmqI4oCOGVkdEQlvbu/7fe6uMk/AhEGWhBNO2K/IFHIKHE6bOQt5+T0PSGhRWVmJvy5bhpNH1KkPaSZywL333IMHfvFL9SEm06ZPR0FxCfRkn1hLW/c39W1xHNAxlbPUJsBj1vGGJikmKcyrL0UOmDvSrm7WJBxnH/geX8BeMlnkgDMrbCi08n328rt4zDym1Gh7olAUoM0X67GWfV9sIpfUoDgLX0TC/1/jZSp6xiISlnFQx0rrQEzG2r1sgb/UKWB4sTnh35PtKkkhgQMuvfo63HHnnepDzIqKihETTAl/8UScNhuqh9VpTu8k8tGnn8GtI4iz/0T/ISsK9nkjkHV8yHgO0B6ijBOXFYSZH1A45HdbJq9VVFLw+oEg9mqcvuk0cbhvrANDdBSBG11oPmGOd1/MAoe5oxy4clLvOeTu1u+P4OWtnbpqcI0cru0G092q+gh8jJMGfGEZRxlWQxc7RRRqHAfpwnojVwAs/yqAIz5t1wEAWEQO956Zj/wEaR5kU3wpMPF46s9/VjfrdvU118Ku8zFx6uRTcONNN6ubdfMz9hRJz3iBQ1m+CHsGZno0BGR8fJhtxW5+kYhBvcyqSCQqKzjIMJZwcbUN40rSO8XVxHOYVGFFgcbgt9cvQdYxkj+3hv2JKRSQmG4ycQV4Y3sntmmcsWVz8Pj19/Jx86nabnx61XfEsbGeLd03u84Gl7nvv0nWBP5OnQMfvbn3Jz+BVcdjokfkDK/M+bcX/677JjQQKeCwTsfiGLeFx6wh6Q1wXfa3RZjnUN8yVV9Fzt2++Ak7Z/WmxilgQmHix/pUOaXSiokjtP091u4KJRwENlKgQ4LEEE+2NYexaof2dMrsoVYMyWd/EmG1qYG9GNv88fY+e/vIpsAvmNkfU1PBzHNYbfCMmtNnnq5rds9AFZcUbN7N1pPB8Xx0gY7UiRFCqqmKWgzWWT00yDAQWu0yocKp7/9JlokHfjBWW683EpaxqUl7cE2W1ocLBcCvvvCjoUPbE9bJlRbcNiUPFgHMu6m9yJCrVxTgF++wzeS5e7YHY4u13Ygz8ylS8YgcWtuNX7DkS1cXgzDZ0sIe9IFjy/etGbqD7mRcKo/jc/j12NupLQhZeOD8isx2mGrcIk6q0BYA9Zac0GO3T1tP+Y3tnTi4S9v1yAGoKzLBfDyTwIscTBbt12PDwQj8GmeF/e1rtnhY6hJQytAB0HdlEpIBpYPMmh5jjVbfGcPLm9hKMecViqjS2eN/+7C2QMTz+gqZGe3mGXnqph79+VP2xVxFBu+d250vImHZF9qrwwo8MHecA87jC/KKHAImVrGlfA519n1D8oYlPLNB+3kBwPhyM04epO0GDAr8J/IxPGYTfZ7cwRZEu9w2UVtawWjekLZ8e3cLx/Re/CyRfRp7qgBwY50dTg0DealWp3Fdhb+dvcfvTOFA/qubA0xz6x/+XgGq3N+udbDyQFkKbkxL1ncwlTIpdQm4dpILDpP2c6HAr6LtQYzoFZUUbGbsPXdx6EydJKtZx2YxNp0pKZYZrhrL76Sciedg0ri2Ym87e8ps6sn6bqKJeENxbG6MQNI4kaPUJeC0ageEbitDOe7YymwjNQQl7PPFmeJQVZ4Ij1VgWrRq8GkTkthhv/YerVqm0hqLP2N77AbwnW3uBjqe53DqcPZpl1pdNdT4197SFMNahg1Nbj3Vo26CVeSZr8l1CfaXlhUFnx4JY3tz79/Tk/+Y4dZchK9L7lydpF8rrbSg0Jr+y7WxM4ZWxk00ptRYcXK59nxrf8dBwUh3+v82eu1tj+DRNdpnzEyutvT693TlCTAzXJfLPu590DYqAyt2BZmKsd1ymhvVHvYBfu1nTIgBljFMaevuljHapqkZLQ6O6bEbANxWHla2Dtg3JEmCoijffHEc1+uXILD1NlNJazFFrd/XnSSxjw08sa3npzRJUeANA0c1Tt/kOQ6jii0o7mUh3unlZlQ4tP9O4aCM/b2ku9YfDmIHw1OIReQwrNiiaz9n9p8gRKeIpODIAbbVr5l2KCAx5d1xfNvAdNWYyQV5jKWlASDg77nX/GlTFPe91qJu7tWQcjMWpmFSgT8q4XeMKcX5E5w4hWEmT3cU+EnadMYUhFmj6HHlLvbHWSN8uDuEMMNML0HkMKjYBKuOXlh/pYDDJ4zpMBYV3WbSaNXacGKvOhCT8da2ANPf88pJrrSM1zQHJbQwbP5SlS9ixmCb7g5G6n8jQpJUWGpGgYu915esjqiMxna2zWIKbTzOrtHXC+uvZFnBxp36ZmppIQgcSjQuEktka3scG45ENP89K4dacW5V4hRjicOkK9XSXXMwjl+t0j7mAAAeq4CafFPC0suJJHfGhDD4+GgEezXWoOnujDITCtPQ61ILxBV06ijVoHMmJwDAzjAX+0hQe881lTpjsuZgOljHHroWnsNFVexPfDtav82XSwrwzqYO+DTO2zeZOdwzwd3nFEkOwKTR2mcdKQCW7fp2nEtWgKMdcXQwln79r7MLUMAwqKym/ycJYSApQENLDJFQdgQrLXa1RLG9hS2FIXIcPHpHdgFUuU2YVqwttfHi3iB8kcy/n/t6GaxUmzveoW5Km4PtEbyxVfvEgkmDrRhVpO1mc3a5tu/rUn8k8k09pogk460dbKWXLz3Jifwkgj4o8JN0kWQFnVHtF3d3RXYRFiG9l6oC4JA3jijD1DoAqBhsSXqh2YR8bTcORVHgZ8hXp8pDb2tLU5w1InOB/57XWtVNvRpaZMLtU/LgStGq4aisIHy8eugnh0N4b6f2mTwAcO4oR1L7OIMCP0kXSQFCOgZ2XS4BFWXmPh+5jaYox+q0s7p1jPbH/mRFZOC5XUG0R/TdUI3wxdEQGjQWX9O9jSIHCDqT2bICbGQ4RwAocYkosPGarzmTznPD8Zr7foantttn5mFMAdsTRk8o8JO0aA/L+Nd+tp4NAJRZOc09YCPJioK9HWxpHuiceqhW6hBRrXGDk7aIjEOd2nPsRgrFZCz+WFvhtbGDLJr39FXjAZQ79f1sayiOxz5oVzcndMfpechjGFOq8Zjh1nGNesNxpj1+yz0iavNNmm9IiWj/7QhJwkFfDAGNi2ayQVwGPtipPScMAMXlZpTpDFDdDXabMdytLfA3hCRsb48xLzIzwrr9Yexp1XZzPG2o/qmHOL7rlY1hoRQAxGTg3Z0B1DPkz2+fmYdSO9v/AwDfn6S9ntDRkIzd/hgefk9biqxLXbEJY8uS7+2DAj9Jl6CO2TEA4DILKGasQ2KEra1RpqXzAHD7BONy2BxDt+61gyF80ZzehXERScHXDWF0akxTVDkF3VMPAUAUOQgi2wvc9GIz/rC2AwGNNfA5AJeNceqanlnNcFNq9sZx59+bsXaf9idg0cRhxBAbXEmOH3Ux5lUI6cMBhj1kuzuFYarcQGEWOHyvxo4hDGsXXjvI9nSC4wuavmyN4WCHtlk5XTpjMpZ84sVLXwXUh3o0a6gN0wYnng/fl1EeEaM9qe0A3HVGPkS94xApVpYv4uJqttr/iVDgJ2nxwkbtuczuZpYa82jLatlGbbnr7socyad5uthFDtNL+v7dB9l4XDHUjjvGsJUV8EclPPOpDw+8q322CwC0hyU8vs6LFz7XFvQtIoezhtthZ+ytp9vQIhMmllt07108yIAUXyILJ7uZK4EmQoGfpNz+jhg6GfKsmXa4M461e9h60PnFIop07rjVE5uJx0hP4mBi5jncMNKJ86tsTDtVRSUFz2/swD++7ESHxgVNOP6EsGiDj2k+vEngMDJDN28WI4vNqC1I/H4nUmAz7m+vVj7YiotqkntiUqPAT1JO79bHZiuPIXnpDxp6zndOuTmplZQ9qc0z4yfjT+zJ20UOFXYB95/kxvA87cv2Y7KC1fsCuOL1Zjz3Wafm3zMmKzgUkPDs5z68uimgefMSAFi0oMSQzeB57tjWh6lQ7BFx06ke3b19ABAFYEgKSnUIIofbxzmTGhjvSYreSkK+9UWbtpkfavOnuNVNabG1Xd/5pkKxTcCIbrltu8jh8iF2/HKyB7UMOe+YDLy9K4hfrfKi4ZD2geBQXMbyzX78x8pmPM9YPXJ6rRW1Ogqs9cRtEeBK0TaTc6e4UMzwxNQTq8inJC05vtqKcaXG31Ao8JOUe51hQ+vuZqTgg6TFu1u05a+7K7ab9C9QSqDULuD7wx2oc4uYV2PDNcMcmDnIwrRoaJ8vhttWNOKPa9sR1DjD5XBHFF83hnHHy814ZoMfLY1sN8NTa6348ax8dXNS8otN4AyOWCUVFixIwQ5fRrBYecwcZkM+w5oCrYx/RUK6aQjE0dGpPY/cXQriaJ9aQhLa/GznO6rMjPNHO5JKFSSSZ+FxWa0NFw22YYbGoK8cT9Fsb4vi6ucasKUhCl8PdZIUAMGogs6ojM+PhrDhSBAPvteKy//aiFv+0YytjVHNUza7WG08Th/rxCADUjzdzR9qg9XAi0LkgdsmOGHXMX1TTeCO1VkyUo1HxFnVNs2pPBbJ/8aEpMCwIhNGFWamx59tnCYeowrMmgJ+l8aAhIc+9OLWl5sTLu6KxhVcv6wJ5yw+gjuWt+Cul1vx9rbkSiyfPdSG2To3CEmnC8c4MbPauEFT0cRBNLC+z1knOVO23WhqXpWQ47a0x3WVNp4z0mH4gJYWe/wS2iJs52sV+JQV9NKjMSjhF++0YtWmQNqroV412Y07TstPuohYqpW4BMwaYoNB66EAAMOKTagtNOYpp7jcjLlJrn1IxMBfm5ATbdkfRoBxBSwAyDL7zxhhT30ELYx7BlTWmGExIF2QrGBMxuItHfj3fzTiyyPaB3CNsuBkB244xQ1nim6Cevbr7Y3DzKG2QNBd/K0n+RYBHoPuJPec4oTToNfqSepemeS8zqiElqC++fsWHoYUo2IRjss46mcbxASABUNS1zPTKhiT8fSnPvxltQ/tDJUojWCz87hojAPXT86DxcAcvFqFU4Bg0EXx4HkFKDVwwZ2RRg21YUpFagecKfCTrFOdL2JihS1lg6W9CUnA3jQHzWSFYjJWHwnhd2u9+NtGfbOnkjFjiA13n1WA2071wJWG9E5+cfKplAtG2VCYggVXNpFLeq9li5XH3Do7Uv1WpvjlSS6rD8nY4mXvQZd7BJQx1Kkxii8oYdNB9hRJpStzPceIpOCNrzuxcktyA7J6TBtsw10z83BhtQ0eA8pRa3H7VI+6idkNU/KQb2D5gy4WgUN5RXJ7R4wsNmNKuQV8Mi+iAQV+kjJtPglHm9gDP89xhuZetdrREkaccfeV8ePtKZm/r1WeVcBdM/Lw1BVFcFt5w+e5q9nNHAocApZeU4bffa/I8CmbfSlKcpbL9VNdKNa414Ee/zZM//UgCBymjLSj1J668+uS3LtISAIHfWxVH7t4LEJa0gZGuGl4anOxWlS4TBhdZMMj84pwyclOzBxqXBXH7s4aYcdP5xRg8eUlqO2jjlA2KnYKOLncmpFOhRZFhSLmpXAmT3f949NFcobNxOOsEem5+NXebWB/OqkxeNFOMsYWWvDDyR78dE4BHr6gCOef5IDFltxHfHSZGbfPzMNvLizCf84uwJlD7Sh3pLeXb5RRJWaML8ve9QU3TvUw7fyVjPT8LyQn/eMAe75c4IFKT+ofdXuyTmN9+e7cacpta2UVebjNx+ao339aAf51fQWeuKwI952fD0+BtoB98TgnFi8sxTNXlmLJpaVYOM6FGbU22LK8tHIiFpHDbafnwaQzDaNVpVPUleOvqLXifAMXk/WFUxTjd+u86IIL1E0J2QQOS1e8ApPJ2N4T63l0+efKleqmpLR7vbjx2qsRZths3CFyWPbaG+pmzR5//HGsZPw9LrjgAtx+++3qZl38URnnLj6ibu6Ty8pj6ZWlKMrArlv72tlTU4PzzGmffZSsAx29r1Oocaf/fWd19z+b1U19qh5sxZ3jTqx0mgq/3+THQcb9pS872YXplalJ0fUkJYGfkM3NIdz0You6uU8eK483b6hQNxNCDESpHpJV/uucPHUTIcRgFPhJSvz6C/Z8OQDkJzkYSQjpG33KiOF8EQmH9rDlOLtkIrdPSK6hwE8M5w1L0Dt0lK31UwgZSCjwE8O9cjAChglM3/jJHMrvE5IOFPiJoaKSgiMHwtDZ4SeEpAEFfmKozpiMIGO9my6l/XRFKCH9DQV+YqhP9oexqZ59xS4AuLJsFSwhAxUFfmKYiKTg0yMhxHVsnnXBaBtqNZYUIIQkhwI/McwBXxxvbgupmwkhWYYCPzHEYX8c969kL9HQpdBmSnr3IkKINvRJI0mTFQV/2uLH4fbei38lUp0vYt44O7K0TDohAw4FfpKUuKxg7YEQNiWR4hF5DnYzDewSki4U+ElSPjsSxu/XtKM1oH+T8isnueHuJztuETIQ0KeN6LatJYx7/9mCBr/+oA8A52fB9oWE5BKqx0+Y+KMyNrVE8fS6dmxrZN+qUO2RuUU4tTJ9Ow8RQijwEwDNwTgkWUGZs+cCaXFZQVMghjV7ItjcFMEnR6MIJNnLB4DJNVbce0Y+Kl00f5+QdKLAT/DrL3zY8HUABQUmLJhgR41DwKGgjLePRFB/IIJYVEFMVuANyojqqb7Wi3vPyMe8sU51MyEkxSjw5zhJAa5b1oC9rcmnbVjMGW7HvWfk06AuIRlAn7oc1xSIIaKnxkISTAKHe2ZR0CckU+iTl+M+2h9BSyC9gf9HZ+Qhz0KXHiGZQp++HNYZlbClMYKIzjLKrHiOwz1n5mP+KMrrE5JJFPhzWEhS0BZJT2/fInK4YZobF45wqA8RQtKMAn8O29wYwVf1UXVzStww3Y0FE1ywClSQh5BMo8Cfw9pDMiLh1Pb4C0rMeHphGa4Y74ZNpKBPSDagwJ/Dnt2uv7BaX2oKTJgz3I7nLynGqEITqKNPSPagefw5qjko4ZJn6tXNSbNYeUyqsuDHM/JhFYE82k6RkKxDgT9HbW4O4aYX9W+c0pOfzMlDgVPE2BIL8iw8qJNPSHaiwJ+jtreGsac1jj984IN8/AqQFCAqK5ASTO8URA62bnmb2gIRP5zpxpB8C2y0gxYh/QIF/hzXHpbgjx4ruHYoKGOzN46mI1H0dlGUV1lwzqBvi7lVuc3fOU4IyX4U+AkhJMfQszkhhOQYCvyEEJJjKPATQkiOocBPCCE5hgI/IYTkGAr8hBCSYyjwE0JIjvlfYB2t4k+HoWUAAAAASUVORK5CYII=;" vertex="1" parent="68ylDHR1GUJ3_icKr76c-31">
          <mxGeometry x="140" y="58.870000000000005" width="75.95" height="34" as="geometry" />
        </mxCell>
        <mxCell id="68ylDHR1GUJ3_icKr76c-26" value="" style="sketch=0;outlineConnect=0;fontColor=#232F3E;gradientColor=none;fillColor=#7AA116;strokeColor=none;dashed=0;verticalLabelPosition=bottom;verticalAlign=top;align=center;html=1;fontSize=12;fontStyle=0;aspect=fixed;pointerEvents=1;shape=mxgraph.aws4.bucket;" vertex="1" parent="68ylDHR1GUJ3_icKr76c-15">
          <mxGeometry x="417.05" y="336" width="39.42" height="41" as="geometry" />
        </mxCell>
        <mxCell id="68ylDHR1GUJ3_icKr76c-40" value="" style="endArrow=classic;startArrow=classic;html=1;rounded=0;entryX=0.25;entryY=1;entryDx=0;entryDy=0;" edge="1" parent="68ylDHR1GUJ3_icKr76c-15" source="68ylDHR1GUJ3_icKr76c-26" target="68ylDHR1GUJ3_icKr76c-31">
          <mxGeometry width="50" height="50" relative="1" as="geometry">
            <mxPoint x="405" y="266" as="sourcePoint" />
            <mxPoint x="435" y="286" as="targetPoint" />
          </mxGeometry>
        </mxCell>
        <mxCell id="68ylDHR1GUJ3_icKr76c-41" value="" style="sketch=0;outlineConnect=0;fontColor=#232F3E;gradientColor=none;fillColor=#7AA116;strokeColor=none;dashed=0;verticalLabelPosition=bottom;verticalAlign=top;align=center;html=1;fontSize=12;fontStyle=0;aspect=fixed;pointerEvents=1;shape=mxgraph.aws4.bucket;" vertex="1" parent="68ylDHR1GUJ3_icKr76c-15">
          <mxGeometry x="104.58" y="336" width="39.42" height="41" as="geometry" />
        </mxCell>
        <mxCell id="68ylDHR1GUJ3_icKr76c-45" value="" style="edgeStyle=orthogonalEdgeStyle;rounded=0;orthogonalLoop=1;jettySize=auto;html=1;" edge="1" parent="68ylDHR1GUJ3_icKr76c-15" source="68ylDHR1GUJ3_icKr76c-19" target="68ylDHR1GUJ3_icKr76c-24">
          <mxGeometry relative="1" as="geometry" />
        </mxCell>
        <mxCell id="68ylDHR1GUJ3_icKr76c-69" style="edgeStyle=orthogonalEdgeStyle;rounded=0;orthogonalLoop=1;jettySize=auto;html=1;" edge="1" parent="68ylDHR1GUJ3_icKr76c-15" source="68ylDHR1GUJ3_icKr76c-19" target="68ylDHR1GUJ3_icKr76c-62">
          <mxGeometry relative="1" as="geometry" />
        </mxCell>
        <mxCell id="68ylDHR1GUJ3_icKr76c-19" value="" style="sketch=0;outlineConnect=0;fontColor=#232F3E;gradientColor=none;fillColor=#ED7100;strokeColor=none;dashed=0;verticalLabelPosition=bottom;verticalAlign=top;align=center;html=1;fontSize=12;fontStyle=0;aspect=fixed;pointerEvents=1;shape=mxgraph.aws4.lambda_function;" vertex="1" parent="68ylDHR1GUJ3_icKr76c-15">
          <mxGeometry x="110" y="78.5" width="32.5" height="32.5" as="geometry" />
        </mxCell>
        <mxCell id="68ylDHR1GUJ3_icKr76c-17" value="" style="sketch=0;points=[[0,0,0],[0.25,0,0],[0.5,0,0],[0.75,0,0],[1,0,0],[0,1,0],[0.25,1,0],[0.5,1,0],[0.75,1,0],[1,1,0],[0,0.25,0],[0,0.5,0],[0,0.75,0],[1,0.25,0],[1,0.5,0],[1,0.75,0]];outlineConnect=0;fontColor=#232F3E;fillColor=#8C4FFF;strokeColor=#ffffff;dashed=0;verticalLabelPosition=bottom;verticalAlign=top;align=center;html=1;fontSize=12;fontStyle=0;aspect=fixed;shape=mxgraph.aws4.resourceIcon;resIcon=mxgraph.aws4.api_gateway;" vertex="1" parent="68ylDHR1GUJ3_icKr76c-15">
          <mxGeometry x="44.420000000000016" y="77.25" width="35" height="35" as="geometry" />
        </mxCell>
        <mxCell id="68ylDHR1GUJ3_icKr76c-20" style="edgeStyle=orthogonalEdgeStyle;rounded=0;orthogonalLoop=1;jettySize=auto;html=1;exitX=1;exitY=0.5;exitDx=0;exitDy=0;exitPerimeter=0;" edge="1" parent="68ylDHR1GUJ3_icKr76c-15" source="68ylDHR1GUJ3_icKr76c-17" target="68ylDHR1GUJ3_icKr76c-19">
          <mxGeometry relative="1" as="geometry" />
        </mxCell>
        <mxCell id="68ylDHR1GUJ3_icKr76c-43" value="" style="edgeStyle=orthogonalEdgeStyle;rounded=0;orthogonalLoop=1;jettySize=auto;html=1;" edge="1" parent="68ylDHR1GUJ3_icKr76c-15" source="68ylDHR1GUJ3_icKr76c-17" target="68ylDHR1GUJ3_icKr76c-19">
          <mxGeometry relative="1" as="geometry" />
        </mxCell>
        <mxCell id="68ylDHR1GUJ3_icKr76c-24" value="" style="sketch=0;points=[[0,0,0],[0.25,0,0],[0.5,0,0],[0.75,0,0],[1,0,0],[0,1,0],[0.25,1,0],[0.5,1,0],[0.75,1,0],[1,1,0],[0,0.25,0],[0,0.5,0],[0,0.75,0],[1,0.25,0],[1,0.5,0],[1,0.75,0]];outlineConnect=0;fontColor=#232F3E;fillColor=#C925D1;strokeColor=#ffffff;dashed=0;verticalLabelPosition=bottom;verticalAlign=top;align=center;html=1;fontSize=12;fontStyle=0;aspect=fixed;shape=mxgraph.aws4.resourceIcon;resIcon=mxgraph.aws4.dynamodb;" vertex="1" parent="68ylDHR1GUJ3_icKr76c-15">
          <mxGeometry x="107.5" y="159" width="37.5" height="37.5" as="geometry" />
        </mxCell>
        <mxCell id="68ylDHR1GUJ3_icKr76c-46" value="" style="endArrow=classic;startArrow=classic;html=1;rounded=0;" edge="1" parent="68ylDHR1GUJ3_icKr76c-15" source="68ylDHR1GUJ3_icKr76c-41" target="68ylDHR1GUJ3_icKr76c-26">
          <mxGeometry width="50" height="50" relative="1" as="geometry">
            <mxPoint x="220" y="266" as="sourcePoint" />
            <mxPoint x="270" y="216" as="targetPoint" />
          </mxGeometry>
        </mxCell>
        <mxCell id="68ylDHR1GUJ3_icKr76c-87" style="edgeStyle=orthogonalEdgeStyle;rounded=0;orthogonalLoop=1;jettySize=auto;html=1;exitX=1;exitY=0.5;exitDx=0;exitDy=0;exitPerimeter=0;" edge="1" parent="68ylDHR1GUJ3_icKr76c-15" source="68ylDHR1GUJ3_icKr76c-27" target="68ylDHR1GUJ3_icKr76c-78">
          <mxGeometry relative="1" as="geometry" />
        </mxCell>
        <mxCell id="68ylDHR1GUJ3_icKr76c-27" value="" style="sketch=0;points=[[0,0,0],[0.25,0,0],[0.5,0,0],[0.75,0,0],[1,0,0],[0,1,0],[0.25,1,0],[0.5,1,0],[0.75,1,0],[1,1,0],[0,0.25,0],[0,0.5,0],[0,0.75,0],[1,0.25,0],[1,0.5,0],[1,0.75,0]];outlineConnect=0;fontColor=#232F3E;fillColor=#E7157B;strokeColor=#ffffff;dashed=0;verticalLabelPosition=bottom;verticalAlign=top;align=center;html=1;fontSize=12;fontStyle=0;aspect=fixed;shape=mxgraph.aws4.resourceIcon;resIcon=mxgraph.aws4.sns;" vertex="1" parent="68ylDHR1GUJ3_icKr76c-15">
          <mxGeometry x="104" y="247" width="41" height="41" as="geometry" />
        </mxCell>
        <mxCell id="68ylDHR1GUJ3_icKr76c-47" value="" style="endArrow=classic;startArrow=classic;html=1;rounded=0;entryX=0.5;entryY=1;entryDx=0;entryDy=0;entryPerimeter=0;" edge="1" parent="68ylDHR1GUJ3_icKr76c-15" source="68ylDHR1GUJ3_icKr76c-27" target="68ylDHR1GUJ3_icKr76c-24">
          <mxGeometry width="50" height="50" relative="1" as="geometry">
            <mxPoint x="220" y="266" as="sourcePoint" />
            <mxPoint x="270" y="216" as="targetPoint" />
          </mxGeometry>
        </mxCell>
        <mxCell id="68ylDHR1GUJ3_icKr76c-48" value="" style="endArrow=classic;startArrow=classic;html=1;rounded=0;entryX=0.5;entryY=1;entryDx=0;entryDy=0;entryPerimeter=0;" edge="1" parent="68ylDHR1GUJ3_icKr76c-15" source="68ylDHR1GUJ3_icKr76c-41" target="68ylDHR1GUJ3_icKr76c-27">
          <mxGeometry width="50" height="50" relative="1" as="geometry">
            <mxPoint x="54" y="336" as="sourcePoint" />
            <mxPoint x="104" y="286" as="targetPoint" />
          </mxGeometry>
        </mxCell>
        <mxCell id="68ylDHR1GUJ3_icKr76c-49" value="" style="edgeStyle=orthogonalEdgeStyle;rounded=0;orthogonalLoop=1;jettySize=auto;html=1;" edge="1" parent="68ylDHR1GUJ3_icKr76c-15" source="68ylDHR1GUJ3_icKr76c-32" target="68ylDHR1GUJ3_icKr76c-24">
          <mxGeometry relative="1" as="geometry" />
        </mxCell>
        <mxCell id="68ylDHR1GUJ3_icKr76c-52" value="" style="edgeStyle=orthogonalEdgeStyle;rounded=0;orthogonalLoop=1;jettySize=auto;html=1;" edge="1" parent="68ylDHR1GUJ3_icKr76c-15">
          <mxGeometry relative="1" as="geometry">
            <mxPoint x="495" y="354.51724137931024" as="sourcePoint" />
            <mxPoint x="456.4680486642303" y="357.48275862068976" as="targetPoint" />
          </mxGeometry>
        </mxCell>
        <mxCell id="68ylDHR1GUJ3_icKr76c-54" value="" style="edgeStyle=orthogonalEdgeStyle;rounded=0;orthogonalLoop=1;jettySize=auto;html=1;" edge="1" parent="68ylDHR1GUJ3_icKr76c-15" source="68ylDHR1GUJ3_icKr76c-50" target="68ylDHR1GUJ3_icKr76c-53">
          <mxGeometry relative="1" as="geometry" />
        </mxCell>
        <mxCell id="68ylDHR1GUJ3_icKr76c-50" value="" style="sketch=0;points=[[0,0,0],[0.25,0,0],[0.5,0,0],[0.75,0,0],[1,0,0],[0,1,0],[0.25,1,0],[0.5,1,0],[0.75,1,0],[1,1,0],[0,0.25,0],[0,0.5,0],[0,0.75,0],[1,0.25,0],[1,0.5,0],[1,0.75,0]];outlineConnect=0;fontColor=#232F3E;fillColor=#8C4FFF;strokeColor=#ffffff;dashed=0;verticalLabelPosition=bottom;verticalAlign=top;align=center;html=1;fontSize=12;fontStyle=0;aspect=fixed;shape=mxgraph.aws4.resourceIcon;resIcon=mxgraph.aws4.glue;" vertex="1" parent="68ylDHR1GUJ3_icKr76c-15">
          <mxGeometry x="500" y="333" width="47" height="47" as="geometry" />
        </mxCell>
        <mxCell id="68ylDHR1GUJ3_icKr76c-53" value="" style="sketch=0;outlineConnect=0;fontColor=#232F3E;gradientColor=none;fillColor=#8C4FFF;strokeColor=none;dashed=0;verticalLabelPosition=bottom;verticalAlign=top;align=center;html=1;fontSize=12;fontStyle=0;aspect=fixed;pointerEvents=1;shape=mxgraph.aws4.redshift_auto_copy;" vertex="1" parent="68ylDHR1GUJ3_icKr76c-15">
          <mxGeometry x="599" y="335" width="42" height="42" as="geometry" />
        </mxCell>
        <mxCell id="68ylDHR1GUJ3_icKr76c-62" value="Monitoramento" style="fillColor=none;strokeColor=#5A6C86;dashed=1;verticalAlign=top;fontStyle=0;fontColor=#5A6C86;whiteSpace=wrap;html=1;" vertex="1" parent="68ylDHR1GUJ3_icKr76c-15">
          <mxGeometry x="415.05" y="26" width="204.95" height="100" as="geometry" />
        </mxCell>
        <mxCell id="68ylDHR1GUJ3_icKr76c-65" value="" style="points=[];aspect=fixed;html=1;align=center;shadow=0;dashed=0;fillColor=#FF6A00;strokeColor=none;shape=mxgraph.alibaba_cloud.clouddesktop;" vertex="1" parent="68ylDHR1GUJ3_icKr76c-15">
          <mxGeometry x="435" y="55.5" width="40.78" height="41" as="geometry" />
        </mxCell>
        <mxCell id="68ylDHR1GUJ3_icKr76c-61" value="" style="sketch=0;points=[[0,0,0],[0.25,0,0],[0.5,0,0],[0.75,0,0],[1,0,0],[0,1,0],[0.25,1,0],[0.5,1,0],[0.75,1,0],[1,1,0],[0,0.25,0],[0,0.5,0],[0,0.75,0],[1,0.25,0],[1,0.5,0],[1,0.75,0]];outlineConnect=0;fontColor=#232F3E;fillColor=#C925D1;strokeColor=#ffffff;dashed=0;verticalLabelPosition=bottom;verticalAlign=top;align=center;html=1;fontSize=12;fontStyle=0;aspect=fixed;shape=mxgraph.aws4.resourceIcon;resIcon=mxgraph.aws4.xray;" vertex="1" parent="68ylDHR1GUJ3_icKr76c-15">
          <mxGeometry x="540" y="56.5" width="40" height="40" as="geometry" />
        </mxCell>
        <mxCell id="68ylDHR1GUJ3_icKr76c-70" value="API Gatway" style="text;html=1;whiteSpace=wrap;strokeColor=none;fillColor=none;align=center;verticalAlign=middle;rounded=0;" vertex="1" parent="68ylDHR1GUJ3_icKr76c-15">
          <mxGeometry x="31.919999999999987" y="116" width="60" height="30" as="geometry" />
        </mxCell>
        <mxCell id="68ylDHR1GUJ3_icKr76c-71" value="Lambda" style="text;html=1;whiteSpace=wrap;strokeColor=none;fillColor=none;align=center;verticalAlign=middle;rounded=0;" vertex="1" parent="68ylDHR1GUJ3_icKr76c-15">
          <mxGeometry x="96.25" y="47.25" width="60" height="30" as="geometry" />
        </mxCell>
        <mxCell id="68ylDHR1GUJ3_icKr76c-72" value="DynamoDB" style="text;html=1;whiteSpace=wrap;strokeColor=none;fillColor=none;align=center;verticalAlign=middle;rounded=0;" vertex="1" parent="68ylDHR1GUJ3_icKr76c-15">
          <mxGeometry x="36.25" y="162.75" width="60" height="30" as="geometry" />
        </mxCell>
        <mxCell id="68ylDHR1GUJ3_icKr76c-73" value="SNS" style="text;html=1;whiteSpace=wrap;strokeColor=none;fillColor=none;align=center;verticalAlign=middle;rounded=0;" vertex="1" parent="68ylDHR1GUJ3_icKr76c-15">
          <mxGeometry x="36.25" y="252.5" width="60" height="30" as="geometry" />
        </mxCell>
        <mxCell id="68ylDHR1GUJ3_icKr76c-74" value="S3 - Raw" style="text;html=1;whiteSpace=wrap;strokeColor=none;fillColor=none;align=center;verticalAlign=middle;rounded=0;" vertex="1" parent="68ylDHR1GUJ3_icKr76c-15">
          <mxGeometry x="94.5" y="386" width="60" height="30" as="geometry" />
        </mxCell>
        <mxCell id="68ylDHR1GUJ3_icKr76c-75" value="S3 - Models" style="text;html=1;whiteSpace=wrap;strokeColor=none;fillColor=none;align=center;verticalAlign=middle;rounded=0;" vertex="1" parent="68ylDHR1GUJ3_icKr76c-15">
          <mxGeometry x="400.88" y="386" width="71.76" height="30" as="geometry" />
        </mxCell>
        <mxCell id="68ylDHR1GUJ3_icKr76c-76" value="Glue" style="text;html=1;whiteSpace=wrap;strokeColor=none;fillColor=none;align=center;verticalAlign=middle;rounded=0;" vertex="1" parent="68ylDHR1GUJ3_icKr76c-15">
          <mxGeometry x="497" y="386" width="60" height="30" as="geometry" />
        </mxCell>
        <mxCell id="68ylDHR1GUJ3_icKr76c-77" value="RedShift" style="text;html=1;whiteSpace=wrap;strokeColor=none;fillColor=none;align=center;verticalAlign=middle;rounded=0;" vertex="1" parent="68ylDHR1GUJ3_icKr76c-15">
          <mxGeometry x="599" y="386" width="60" height="30" as="geometry" />
        </mxCell>
        <mxCell id="68ylDHR1GUJ3_icKr76c-85" style="edgeStyle=orthogonalEdgeStyle;rounded=0;orthogonalLoop=1;jettySize=auto;html=1;" edge="1" parent="68ylDHR1GUJ3_icKr76c-15" source="68ylDHR1GUJ3_icKr76c-78" target="68ylDHR1GUJ3_icKr76c-31">
          <mxGeometry relative="1" as="geometry" />
        </mxCell>
        <mxCell id="68ylDHR1GUJ3_icKr76c-78" value="OrquestraÃ§Ã£o" style="fillColor=none;strokeColor=#5A6C86;dashed=1;verticalAlign=top;fontStyle=0;fontColor=#5A6C86;whiteSpace=wrap;html=1;" vertex="1" parent="68ylDHR1GUJ3_icKr76c-15">
          <mxGeometry x="172" y="210" width="170" height="114" as="geometry" />
        </mxCell>
        <mxCell id="68ylDHR1GUJ3_icKr76c-82" style="edgeStyle=orthogonalEdgeStyle;rounded=0;orthogonalLoop=1;jettySize=auto;html=1;" edge="1" parent="68ylDHR1GUJ3_icKr76c-15" source="68ylDHR1GUJ3_icKr76c-79" target="68ylDHR1GUJ3_icKr76c-81">
          <mxGeometry relative="1" as="geometry" />
        </mxCell>
        <mxCell id="68ylDHR1GUJ3_icKr76c-79" value="" style="points=[];aspect=fixed;html=1;align=center;shadow=0;dashed=0;fillColor=#FF6A00;strokeColor=none;shape=mxgraph.alibaba_cloud.eventbridge;" vertex="1" parent="68ylDHR1GUJ3_icKr76c-15">
          <mxGeometry x="190" y="242.5" width="40" height="40" as="geometry" />
        </mxCell>
        <mxCell id="68ylDHR1GUJ3_icKr76c-81" value="" style="verticalLabelPosition=bottom;aspect=fixed;html=1;verticalAlign=top;fillColor=strokeColor;align=center;outlineConnect=0;shape=mxgraph.fluid_power.x10810;points=[[0.272,1,0],[0.364,1,0]]" vertex="1" parent="68ylDHR1GUJ3_icKr76c-15">
          <mxGeometry x="260" y="238.75" width="61.53" height="47.5" as="geometry" />
        </mxCell>
        <mxCell id="68ylDHR1GUJ3_icKr76c-83" value="Step functions" style="text;html=1;whiteSpace=wrap;strokeColor=none;fillColor=none;align=center;verticalAlign=middle;rounded=0;" vertex="1" parent="68ylDHR1GUJ3_icKr76c-15">
          <mxGeometry x="256" y="286.25" width="80" height="30" as="geometry" />
        </mxCell>
        <mxCell id="68ylDHR1GUJ3_icKr76c-84" value="EventBridge" style="text;html=1;whiteSpace=wrap;strokeColor=none;fillColor=none;align=center;verticalAlign=middle;rounded=0;" vertex="1" parent="68ylDHR1GUJ3_icKr76c-15">
          <mxGeometry x="180" y="286.25" width="60" height="30" as="geometry" />
        </mxCell>
        <mxCell id="68ylDHR1GUJ3_icKr76c-92" value="ClowdWatch" style="text;html=1;whiteSpace=wrap;strokeColor=none;fillColor=none;align=center;verticalAlign=middle;rounded=0;" vertex="1" parent="68ylDHR1GUJ3_icKr76c-15">
          <mxGeometry x="425.39" y="96.5" width="60" height="30" as="geometry" />
        </mxCell>
        <mxCell id="68ylDHR1GUJ3_icKr76c-93" value="X-Ray" style="text;html=1;whiteSpace=wrap;strokeColor=none;fillColor=none;align=center;verticalAlign=middle;rounded=0;" vertex="1" parent="68ylDHR1GUJ3_icKr76c-15">
          <mxGeometry x="530" y="96" width="60" height="30" as="geometry" />
        </mxCell>
        <mxCell id="68ylDHR1GUJ3_icKr76c-44" value="" style="edgeStyle=orthogonalEdgeStyle;rounded=0;orthogonalLoop=1;jettySize=auto;html=1;" edge="1" parent="1" source="68ylDHR1GUJ3_icKr76c-5" target="68ylDHR1GUJ3_icKr76c-17">
          <mxGeometry relative="1" as="geometry">
            <mxPoint x="150" y="289" as="sourcePoint" />
            <mxPoint x="260" y="328" as="targetPoint" />
          </mxGeometry>
        </mxCell>
        <mxCell id="68ylDHR1GUJ3_icKr76c-55" value="" style="verticalLabelPosition=bottom;html=1;verticalAlign=top;align=center;strokeColor=none;fillColor=#00BEF2;shape=mxgraph.azure.github_code;pointerEvents=1;" vertex="1" parent="1">
          <mxGeometry x="250" y="80" width="50" height="50" as="geometry" />
        </mxCell>
        <mxCell id="68ylDHR1GUJ3_icKr76c-56" value="Github" style="text;html=1;whiteSpace=wrap;strokeColor=none;fillColor=none;align=center;verticalAlign=middle;rounded=0;" vertex="1" parent="1">
          <mxGeometry x="245" y="130" width="60" height="30" as="geometry" />
        </mxCell>
        <mxCell id="68ylDHR1GUJ3_icKr76c-88" value="" style="shape=image;verticalLabelPosition=bottom;labelBackgroundColor=default;verticalAlign=top;aspect=fixed;imageAspect=0;image=data:image/png,iVBORw0KGgoAAAANSUhEUgAAAFYAAABYCAYAAABvXACHAAAAAXNSR0IArs4c6QAAAARnQU1BAACxjwv8YQUAAAAJcEhZcwAAHYcAAB2HAY/l8WUAABC3SURBVHhe7Z15c5TXlYef+67dra21ATJIgCS0IgSYxKa8jB2I7XKM48kyrqmpmpr5AvMZmJrKR0nVZDKxYzuTGC/xFttxwAgE2oUkhASStbWW3t7tzh+3XyHkgCWs1mLrV9V/qKvUrX7q9Lnn/s65V6KlpUWWlMYpKCwE4OUX/oPHTj1NxZ4IRSUasUKBbQsMQ7CrtUtvamk5H43FOHn8SR5r+k96Lx3g1nDA9JQPAkwL7IiGZe2CXY/0hqbG8//6L//Oo0f/jYsfBdwa9lhcCMikJYGUeC64jsRzJQBCEwghELucHyj9V//1q/PPP/cLpicChvo9FhIBpg1BAIkZyVe3fSZueywtBli2IBLRMEyBru+SfZD0X//6N+edrGRq0meoz2UhEWCYgiCA5GLA4kLA0qKKYBmA64DjSIJAouksA96N4HulwdeJCCHRdIlpgaaDk4E7oz5//SDD+39I8dkHabo7s8zN+PieRKossasV0lY/EUoIBVUI8H1YWgy4M+Yz1O/S1+XQ0+nQc9VhsMfhzpjHfCLAzeXhXT0AbCghVATrBthRAMnslE9vp8uf/5DmnTdTdPwtw60Rl1RyF2yobwRLGL0a6AYgIJtWcG/ecOnvcujtdOjpzNJ3PcvIoMvMlE86FeD731/QawK7UmGKMAwwLEE2IxkZdLn0lyzvvJHkg7eTDPQ4zM34ONldsOtSCFc3wA9gMREwMeYx1OfSe82h+2qWnmsON/pcbt9SdbHrSoJg9St9d/VQYEMJIdE0iW6GaUKQmAm4+oXDR39K8+GFFJc+T3P7lksq+f1KDd8KLCvyb1hBZDOS6Umf0SGXgW5VPVy/7DDY4zI7rdLD9yFyvzXYlRJCoutgRRTodFIyOujxyYU0H7+dZmTQZXHBX94ef5e1oWABRK56EBp4HiwkAsaGPW4NuyRmfdIpSSYdkEoGLCQClhaCHQ/adQPmE1nm5jIkky6O42882FDL9a8Opi0wLAEIHEeytBgwM+Vz66bLnXGPTHpng00lXW7eXODGjXmmplIkk27+wBLCzeVfTVNbZ99XXsPcjM+NHoeujiz93Q63RlzmE37Oh1j9SttLvi/JZDxmZtLcGJyn8+oMl76YpqtzjumpTH4j9pu0MBfQddnhL++kee+tJJ9/mObWiEtyMcDztncEu65PYi7DQN8c71wY5bXfDvPHN8a49NkMczMO5CPHrlXZjGRmMmB02GOgx6XnmkP3FYe+6w43b7hMTXqk0wFBwJabPFJKPC9gacllfHyJ/t4EVztm+PLSNFc7Zui+PsfQ4CKTExkyGR+2EqymgWEp29FzYXLM54sPt6d75vuSbNZn4k6Si19M8vafRnnz9VE+/vMkd8bT+IHEtDXsmLZso24ZWARoukBoylRPLn3dPeu+4jDQfdc922wHzXF8Zmcy3BxZ5HrnLF9emqbj8jTXO2fp651nfCxFcslDSlUJ6Yb6PGwp2Jzu655ddXnvzRQXfp/i8hfKPdtsB21p0WVgIMGnn9zhd/8zzFuvj3K9M8HsjIOmQSR6N0JXa8vB8gD3bHToXvcs3w5amEcn7qTo7UlwpWOaK5dVHu26NsfQjQVmprJkMj5CA8O8G6GrdZ+nt07L7pkJdlTgupLRG8o9y7eDlsmoPHqlY4o3Xhvmf38zzCcfTnJjcBHP94nGdExL9fu+qRV1L1i59Sswq9yzQEoWcu7ZSgetp9OhN+egjY96LM6v30ELAonj+CQSWUaGF+i6PsuVDpVHr3ZM09szx9itJPPzDlJKzFwT9Zugcg9Yqd5IBlu/Cq+UECy7Z8sO2qyk82KWjy+k+eBPSS5+mmb8IRw0zwtIJl1ujizw4QfjvPXGCBf+OM7lizPMz7sYhsC0BKapWv7rkRZaf5qutp9CU1G7HepHVrlnoYPm5By0m0MeA92hB+zQf91hdMhl+iufbObrARJ+rnTKY2IixeDAPJ1XVD3acXmarmuzDA0u8NVkbvekqQjVtLVF6Upp6msnMSyJHVX7ehmA70IQCKRc5yvmWfd0kDVJJi0ZG/b47P0M772V4vOP0vR1ZZlP+OobuAKulOB7kpmZLFc7pnjvwi1e++0I7/5xnOHBJVIpH00Hy1Ywv400IcA0BfFSjdpGkyMtJlXVBkVxDV0D34PA3x7RGyrMwQjloC0uBNweVfm3P1cDd11xGOp3Scz5ZLMB2ayqSXu65rj0tyk6vpym8+osPV0Jbt5cYmHexffkcpSuN0JXS9N1gW3r7K+2eepsAc/9tIBTT9ocqjexIwLPkXjbEC5/pwYOkExP+HRddnjn90n+/H8pRm8oD3h+3mGgP8Ebr43wu/8e5suLM3w1mQEh17Xar1WaEALD0Cgq0ampNWk8atN8zKbpmEVDq8XBOpPyPTrRWM6d8rZP/mV1DQykUyr/Dve5jAy4JGYD0mmfVMpjejpNX2+C3p4EkxNpUimP8Bu7kVD5WrkFxAoE1YdMTvwwwnMvxzhzLkrLcYuKfToagmxawZVSbBu4oZbLND23XRYCKSW+J3EdH98L0HQwLTWWutEwV+prYE1TUBLXqDpgUN9s0dJu09yuore20eSRap3CIg1dz62y2yxFiJwHHAKTEmQg8f2AIAhyEf5wK/169DWwoYRQpkK8TKep1eb0P0Q5ey7G6TMRHjmoY0UUVNeBwN9+1cNW64FgldEgqNij8m/DUYuW4yr/1jdZVB8yKatUiV8GCvR2yr9bqfuCXS1dF8QKNPZXmzz2VJQfvRjjibMRWo5bFMc1ggA8V9W/u2DXAVbTVP4tLtE4UGNS32zRdMyiud2iqc2irtGk6oBBcVxDE2Jb1r+bqTWDXS3bFlTuNWhusznzkxjPvRLj1FM2NXUmpinIptWY/fcV7kODNQxBQYFG5V6dw0dMmtrurX9ralX+taMCcltJuQ7naafrocGuVlj/nnwswvOvxDj7coymdgUXCU5aRe/3RRsGdmX9e6TFouW4RfMxi8ZWk9pGk33VOtECgbZh77i9teEfM6x/S8t1Wo7ZPPGjGD9+Jcbjz0bYU6XnNhbrM6R3ovICVtMgGtWo3GtwqN6kud3mSKtJ+R4NOyJUN1MowGpntDMXOOXvSgJffY5wV6frYuPBrlaYIsordOKlajts20LZfhICX+L7O7N6kFLiuuoRSAgNLcPQ8g/2+6q8g9V0sCOCaEwjEr37KC3TOdxgUtdkUVmlFja2oS25WlKqyRg1OCIoKjLZfyBGS2ucxuY4ZWURTFPPP9jVCrfGB+tMzp4r4IWfx2g7ZbGnSkcT29uWXIbqSNIpH10T1ByMcfrJSn75z7Wc++lBDh0uwra3ACy5P9COCvbu16ltMGlotWg4qrbFj9QYFJVoGGaYg7c+eqUEL7fBsWyNsnKb2tpiWtvKaD9RzslTFTx6qoLG5hLipfbW5FjPkyQXA+ZmfKYmPRxXcqjW5PGnopw5F+OJMxGqaw1iBcqKXGlLbpU16fuSbCYgkBCPWzS3lvDSK9X84tXDPPOjAzS3lFMSt+/xeDcdbOBLnGzA7LTPQLfLYLdqn5iWYP9BnYY2k6Y2i/oWi5pag4q9OlZEpQWZi+B85+DwK+/nyqhoVGf/gRiNjSUcPVbG8UfLOfmDCtrayzlcW0xlZZRIRL/HON90sACBhNmvfC59nOX9N9N8dCHFtY4MS4se5ZWCE4/ZPPN8jKefj3LsBzbxMqE+rZT4Xv6tySCQOFn1CAJJRWWEJ5/ew8v/WMOLL9Vw+nQVVVUF2La+fYbiZC4i0inJ5G2PkX6X/m6XvusO/V0uE2MeMoDySp3aBrUtbmpTbaHaRpN9ebImwyj1PImuqTx68FAhzS2ltJ8o58SpCtpPlNPUXMqB6kKKiiwMQ7vvhMymgw2l6WBFBEKH5ELAcJ/Hx29nefeNDJc+zzA+6mJHBEeaLZ59QbXlw9b8RluTy6u9q0702BGdlqMlnHmuil+8WstPzh2ksamMeKkqpdaiLQOrPAXV+HMcmJ8LGBvxGexx6bvm0NflMNyv8m9BkUb1YZPqwyYNLTlz56hqzd9rTa49/y7DdNRqX1BgsK8qSkNjCceOl3P8ZAUnHq2g/Xg5RxriVFREiUSM+371V2vLwIYSq4YufF8yPuLT8VmWC68neffNJN2dWZYW1U0fe6oMTj4e4YWfFfDjVwpoPp6zJtfRmpcS/FweTS75SAn7qqKc+mEFP3+1ll++Wsfjp/dx8GAxsQJz9a+vSVsOllVDF4GEpYWAydtqbL73mkPP1SyDvQ6DvQ6Ttz08T7KnSqe+2aTxqIreur/bmpcqqeek+nJqtdd1QXGJSc1BlUfb2ss48WgFJ09V0Nqm8mhJ3MY0Hw7Rw/1WHiVyY5uGpSamk0sBPVdcPn03w6fvZnjvD6nlo0u6DkeaLJ54NsrZl1e35iWeo2CGCnxJJhngZSXRqE5tfSEvvLSfn/3TIc78+ABtbeWUlt5bjz6s9PPnz59f/WQ+5XlqQnBqwme432N+LkA3VMSynBrUzyK38ieX1KU/C4mAxflAjWgGKhpNS6OgSKO0XKegSNHQNNA1QfkendpGk+I4+IHH/LzD1ESWaEynoamEtvYyTp6qoLEpzt59MYpL1K7p20IFEFI+KBttvNJptevqvpLl/bfSjA55WJG7s1erJXN+bShNV4PA0aigrFLnQK3BwTqDugaLgiJBakndyDQ65KIJOHTEpKgkIOtmmJ1JMzqSBCE4dLiIfVUx4qU2sZihtqHfcnRzpbY92FDhXymlULNYWYgWCPYe0KmpNahvtHjkgEFJmTJ65xMBUkJxiYZh+rieg+N4ZDIBkYjBvqoCCgsfbmFai3YM2FAyt7WVQW7WIXfJWiQi2PuIQX2rSfVhg8o9OkXFOoapBpQDGRAE4cKlEYnoGEb+lpj8vXKetLKCuN/RpYFuh7ERj9kZH8+TGKYgGjUoLLQoKbEpLDTzCpWdCHalxH2OLl38JMvbryf56EKS8dEs2ay/rkMfG6EdDZYVcFceXbpzy2Owx2W4310+C7bZXeEdD3alwhpY11UO9hxwMgJnVT27GfrOgdW0u0eqfF8d/vC9B29x86HvFNjtpF2wedIu2DxpF2yetAs2T9oFmyftgs2TdsHmSbtg86RNByu42x0ID93t1MHjB2nzwYrw1gp14M7NqsHjb+qs7jRtOtjwBouSUp2aOvWIl2lYlhqT8b17WzE7VZsONpyPrak1eObFCM++FKG22aCwWB0bdTLKPNmqycKN0qaDDY+Oxss06ppMWk+qyZYjLSaH6k32VOlEY6pTGuzQswlsBdhQ4ZUpe/dZHP9BlKefi/HsizEefSJCxV4NLXcfzXaYj30YbRnY8IRJQaHOvkcMao9YNLXZtBxXh5/D6e54mY5h3I3etc5mbbW2DOxqhceWDh8xeepMjLPnCjj9bJSGVpNYgYbnqRHLjRzdzKe2DdjwdE1pWe7Sn1aVe5vb1WzW4XqTw/UmFXt3xgmbTZ8rWKs8V40iLS2p0aKJMQ+AG/3qRuTxEZ/kosS0c/e2Crk8GuR7qrqoqTVylwXZlJbrRKObF0eb907rlGEKCos19lYZ1DWaNLfnLp04tr1P2ITatmBDqQahoLhEp7hEp6HZXtMJm62W3tLScr61tXX189tKQqiLJwxDbS4KizWK4xrRAnUxrm6qQTldV/+S0HNUmVYS16hrNKmsMojGNExz84D/P56xwyRK70BSAAAAAElFTkSuQmCC;" vertex="1" parent="1">
          <mxGeometry x="360" y="80" width="48.87" height="50" as="geometry" />
        </mxCell>
        <mxCell id="68ylDHR1GUJ3_icKr76c-89" value="Terraform" style="text;html=1;whiteSpace=wrap;strokeColor=none;fillColor=none;align=center;verticalAlign=middle;rounded=0;" vertex="1" parent="1">
          <mxGeometry x="354.43" y="130" width="60" height="30" as="geometry" />
        </mxCell>
        <mxCell id="68ylDHR1GUJ3_icKr76c-91" style="edgeStyle=orthogonalEdgeStyle;rounded=0;orthogonalLoop=1;jettySize=auto;html=1;entryX=0.25;entryY=0;entryDx=0;entryDy=0;" edge="1" parent="1" source="68ylDHR1GUJ3_icKr76c-90" target="68ylDHR1GUJ3_icKr76c-15">
          <mxGeometry relative="1" as="geometry" />
        </mxCell>
        <mxCell id="68ylDHR1GUJ3_icKr76c-90" value="" style="fillColor=none;strokeColor=#5A6C86;dashed=1;verticalAlign=top;fontStyle=0;fontColor=#5A6C86;whiteSpace=wrap;html=1;" vertex="1" parent="1">
          <mxGeometry x="241" y="70" width="192" height="90" as="geometry" />
        </mxCell>
      </root>
    </mxGraphModel>
  </diagram>
</mxfile>
